<?xml version="1.0" encoding="UTF-8" standalone="no"?>
<!DOCTYPE svg PUBLIC "-//W3C//DTD SVG 1.1//EN"
 "http://www.w3.org/Graphics/SVG/1.1/DTD/svg11.dtd">
<!-- Generated by graphviz version 2.34.0 (20130907.0228)
 -->
<!-- Title: %3 Pages: 1 -->
<svg width="1829pt" height="712pt"
 viewBox="0.00 0.00 1829.45 712.00" xmlns="http://www.w3.org/2000/svg" xmlns:xlink="http://www.w3.org/1999/xlink">
<g id="graph0" class="graph" transform="scale(1 1) rotate(0) translate(4 708)">
<title>%3</title>
<polygon fill="white" stroke="white" points="-4,4 -4,-708 1825.45,-708 1825.45,4 -4,4"/>
<!-- org_liveSense_misc_queryBuilder -->
<g id="node1" class="node"><title>org_liveSense_misc_queryBuilder</title>
<polygon fill="yellow" stroke="black" points="1396.95,-667 1396.95,-703 1583.95,-703 1583.95,-667 1396.95,-667"/>
<text text-anchor="middle" x="1490.45" y="-692.1" font-family="Arial" font-size="8.00">liveSense :: Misc :: SQL QueryBuilder</text>
<polyline fill="none" stroke="black" points="1396.95,-685 1583.95,-685 "/>
<text text-anchor="middle" x="1490.45" y="-674.1" font-family="Arial" font-size="8.00">org.liveSense.misc.queryBuilder(2&#45;SNAPSHOT)</text>
</g>
<!-- org_liveSense_core -->
<g id="node2" class="node"><title>org_liveSense_core</title>
<polygon fill="green" stroke="black" points="757.946,-593 757.946,-629 896.946,-629 896.946,-593 757.946,-593"/>
<text text-anchor="middle" x="827.446" y="-618.1" font-family="Arial" font-size="8.00">liveSense :: Core</text>
<polyline fill="none" stroke="black" points="757.946,-611 896.946,-611 "/>
<text text-anchor="middle" x="827.446" y="-600.1" font-family="Arial" font-size="8.00">org.liveSense.core(2&#45;SNAPSHOT)</text>
</g>
<!-- org_liveSense_misc_queryBuilder&#45;&gt;org_liveSense_core -->
<g id="edge1" class="edge"><title>org_liveSense_misc_queryBuilder&#45;&gt;org_liveSense_core</title>
<path fill="none" stroke="yellow" d="M1396.86,-673.837C1265.97,-659.623 1030.49,-634.05 907.377,-620.68"/>
<polygon fill="yellow" stroke="yellow" points="907.585,-617.182 897.265,-619.582 906.829,-624.141 907.585,-617.182"/>
</g>
<!-- org_apache_commons_beanutils -->
<g id="node3" class="node"><title>org_apache_commons_beanutils</title>
<polygon fill="green" stroke="black" points="1414.95,-593 1414.95,-629 1565.95,-629 1565.95,-593 1414.95,-593"/>
<text text-anchor="middle" x="1490.45" y="-618.1" font-family="Arial" font-size="8.00">Commons BeanUtils</text>
<polyline fill="none" stroke="black" points="1414.95,-611 1565.95,-611 "/>
<text text-anchor="middle" x="1490.45" y="-600.1" font-family="Arial" font-size="8.00">org.apache.commons.beanutils(1.8.3)</text>
</g>
<!-- org_liveSense_misc_queryBuilder&#45;&gt;org_apache_commons_beanutils -->
<g id="edge2" class="edge"><title>org_liveSense_misc_queryBuilder&#45;&gt;org_apache_commons_beanutils</title>
<path fill="none" stroke="yellow" d="M1490.45,-666.937C1490.45,-658.807 1490.45,-648.876 1490.45,-639.705"/>
<polygon fill="yellow" stroke="yellow" points="1493.95,-639.441 1490.45,-629.441 1486.95,-639.441 1493.95,-639.441"/>
</g>
<!-- org_apache_servicemix_specs_java_persistence_api_1_1_1 -->
<g id="node4" class="node"><title>org_apache_servicemix_specs_java_persistence_api_1_1_1</title>
<polygon fill="green" stroke="black" points="1583.95,-593 1583.95,-629 1820.95,-629 1820.95,-593 1583.95,-593"/>
<text text-anchor="middle" x="1702.45" y="-618.1" font-family="Arial" font-size="8.00">Apache ServiceMix :: Specs :: Java Persistence API 1.4</text>
<polyline fill="none" stroke="black" points="1583.95,-611 1820.95,-611 "/>
<text text-anchor="middle" x="1702.45" y="-600.1" font-family="Arial" font-size="8.00">org.apache.servicemix.specs.java&#45;persistence&#45;api&#45;1.1.1(2.2.0)</text>
</g>
<!-- org_liveSense_misc_queryBuilder&#45;&gt;org_apache_servicemix_specs_java_persistence_api_1_1_1 -->
<g id="edge3" class="edge"><title>org_liveSense_misc_queryBuilder&#45;&gt;org_apache_servicemix_specs_java_persistence_api_1_1_1</title>
<path fill="none" stroke="yellow" d="M1540.69,-666.937C1571.2,-656.573 1610.34,-643.283 1642.47,-632.37"/>
<polygon fill="yellow" stroke="yellow" points="1643.86,-635.595 1652.2,-629.065 1641.6,-628.967 1643.86,-635.595"/>
</g>
<!-- org_liveSense_core&#45;&gt;org_apache_commons_beanutils -->
<g id="edge9" class="edge"><title>org_liveSense_core&#45;&gt;org_apache_commons_beanutils</title>
<path fill="none" stroke="green" d="M897.048,-611C1066.27,-611 1235.49,-611 1404.71,-611"/>
<polygon fill="green" stroke="green" points="1404.82,-614.5 1414.82,-611 1404.82,-607.5 1404.82,-614.5"/>
</g>
<!-- javax_jcr -->
<g id="node5" class="node"><title>javax_jcr</title>
<polygon fill="#3182bd" stroke="black" points="1276.45,-371 1276.45,-407 1462.45,-407 1462.45,-371 1276.45,-371"/>
<text text-anchor="middle" x="1369.45" y="-396.1" font-family="Arial" font-size="8.00">Content Repository for JavaTM Technology API</text>
<polyline fill="none" stroke="black" points="1276.45,-389 1462.45,-389 "/>
<text text-anchor="middle" x="1369.45" y="-378.1" font-family="Arial" font-size="8.00">javax.jcr(2.0)</text>
</g>
<!-- org_liveSense_core&#45;&gt;javax_jcr -->
<g id="edge4" class="edge"><title>org_liveSense_core&#45;&gt;javax_jcr</title>
<path fill="none" stroke="green" d="M897.261,-610.805C1014.5,-610.768 1244.23,-604.305 1306.45,-556 1349.77,-522.364 1363.3,-455.29 1367.53,-417.511"/>
<polygon fill="green" stroke="green" points="1371.04,-417.531 1368.53,-407.24 1364.08,-416.854 1371.04,-417.531"/>
</g>
<!-- org_apache_sling_api -->
<g id="node6" class="node"><title>org_apache_sling_api</title>
<polygon fill="#3182bd" stroke="black" points="771.946,-519 771.946,-555 882.946,-555 882.946,-519 771.946,-519"/>
<text text-anchor="middle" x="827.446" y="-544.1" font-family="Arial" font-size="8.00">Apache Sling API</text>
<polyline fill="none" stroke="black" points="771.946,-537 882.946,-537 "/>
<text text-anchor="middle" x="827.446" y="-526.1" font-family="Arial" font-size="8.00">org.apache.sling.api(2.4.2)</text>
</g>
<!-- org_liveSense_core&#45;&gt;org_apache_sling_api -->
<g id="edge5" class="edge"><title>org_liveSense_core&#45;&gt;org_apache_sling_api</title>
<path fill="none" stroke="green" d="M827.446,-592.937C827.446,-584.807 827.446,-574.876 827.446,-565.705"/>
<polygon fill="green" stroke="green" points="830.946,-565.441 827.446,-555.441 823.946,-565.441 830.946,-565.441"/>
</g>
<!-- org_apache_sling_commons_osgi -->
<g id="node7" class="node"><title>org_apache_sling_commons_osgi</title>
<polygon fill="#3182bd" stroke="black" points="45.9461,-149 45.9461,-185 198.946,-185 198.946,-149 45.9461,-149"/>
<text text-anchor="middle" x="122.446" y="-174.1" font-family="Arial" font-size="8.00">Apache Sling Commons OSGi support</text>
<polyline fill="none" stroke="black" points="45.9461,-167 198.946,-167 "/>
<text text-anchor="middle" x="122.446" y="-156.1" font-family="Arial" font-size="8.00">org.apache.sling.commons.osgi(2.2.0)</text>
</g>
<!-- org_liveSense_core&#45;&gt;org_apache_sling_commons_osgi -->
<g id="edge6" class="edge"><title>org_liveSense_core&#45;&gt;org_apache_sling_commons_osgi</title>
<path fill="none" stroke="green" d="M757.863,-607.243C620.569,-601.242 319.536,-585.14 220.446,-556 139.895,-532.311 55.4461,-547.962 55.4461,-464 55.4461,-464 55.4461,-464 55.4461,-314 55.4461,-268.451 82.7168,-221.595 102.462,-193.64"/>
<polygon fill="green" stroke="green" points="105.51,-195.399 108.564,-185.253 99.8501,-191.28 105.51,-195.399"/>
</g>
<!-- org_apache_geronimo_specs_geronimo_servlet_3_0_spec -->
<g id="node8" class="node"><title>org_apache_geronimo_specs_geronimo_servlet_3_0_spec</title>
<polygon fill="#3182bd" stroke="black" points="712.446,-445 712.446,-481 942.446,-481 942.446,-445 712.446,-445"/>
<text text-anchor="middle" x="827.446" y="-470.1" font-family="Arial" font-size="8.00">Servlet 3.0</text>
<polyline fill="none" stroke="black" points="712.446,-463 942.446,-463 "/>
<text text-anchor="middle" x="827.446" y="-452.1" font-family="Arial" font-size="8.00">org.apache.geronimo.specs.geronimo&#45;servlet_3.0_spec(1.0)</text>
</g>
<!-- org_liveSense_core&#45;&gt;org_apache_geronimo_specs_geronimo_servlet_3_0_spec -->
<g id="edge7" class="edge"><title>org_liveSense_core&#45;&gt;org_apache_geronimo_specs_geronimo_servlet_3_0_spec</title>
<path fill="none" stroke="green" d="M757.573,-605.824C645.716,-598.418 436.687,-581.339 414.446,-556 403.305,-543.307 403.28,-530.671 414.446,-518 456.506,-470.272 635.386,-490.396 698.446,-482 699.567,-481.851 700.693,-481.701 701.824,-481.549"/>
<polygon fill="green" stroke="green" points="702.67,-484.967 712.115,-480.166 701.738,-478.03 702.67,-484.967"/>
</g>
<!-- org_apache_commons_lang -->
<g id="node9" class="node"><title>org_apache_commons_lang</title>
<polygon fill="#3182bd" stroke="black" points="423.946,-519 423.946,-555 550.946,-555 550.946,-519 423.946,-519"/>
<text text-anchor="middle" x="487.446" y="-544.1" font-family="Arial" font-size="8.00">Commons Lang</text>
<polyline fill="none" stroke="black" points="423.946,-537 550.946,-537 "/>
<text text-anchor="middle" x="487.446" y="-526.1" font-family="Arial" font-size="8.00">org.apache.commons.lang(2.6)</text>
</g>
<!-- org_liveSense_core&#45;&gt;org_apache_commons_lang -->
<g id="edge8" class="edge"><title>org_liveSense_core&#45;&gt;org_apache_commons_lang</title>
<path fill="none" stroke="green" d="M757.849,-596.89C706.077,-586.928 633.457,-572.513 561.202,-556.352"/>
<polygon fill="green" stroke="green" points="561.536,-552.84 551.011,-554.06 560,-559.669 561.536,-552.84"/>
</g>
<!-- org_apache_felix_scr -->
<g id="node10" class="node"><title>org_apache_felix_scr</title>
<polygon fill="#3182bd" stroke="black" points="229.446,-519 229.446,-555 367.446,-555 367.446,-519 229.446,-519"/>
<text text-anchor="middle" x="298.446" y="-544.1" font-family="Arial" font-size="8.00">Apache Felix Declarative Services</text>
<polyline fill="none" stroke="black" points="229.446,-537 367.446,-537 "/>
<text text-anchor="middle" x="298.446" y="-526.1" font-family="Arial" font-size="8.00">org.apache.felix.scr(1.6.2)</text>
</g>
<!-- org_liveSense_core&#45;&gt;org_apache_felix_scr -->
<g id="edge10" class="edge"><title>org_liveSense_core&#45;&gt;org_apache_felix_scr</title>
<path fill="none" stroke="green" d="M757.63,-603.577C669.591,-595.013 513.732,-578.303 381.446,-556 380.178,-555.786 378.901,-555.566 377.616,-555.341"/>
<polygon fill="green" stroke="green" points="378.112,-551.873 367.644,-553.511 376.849,-558.758 378.112,-551.873"/>
</g>
<!-- org_ops4j_pax_logging_pax_logging_api -->
<g id="node11" class="node"><title>org_ops4j_pax_logging_pax_logging_api</title>
<polygon fill="#3182bd" stroke="black" points="804.946,-149 804.946,-185 977.946,-185 977.946,-149 804.946,-149"/>
<text text-anchor="middle" x="891.446" y="-174.1" font-family="Arial" font-size="8.00">OPS4J Pax Logging &#45; API</text>
<polyline fill="none" stroke="black" points="804.946,-167 977.946,-167 "/>
<text text-anchor="middle" x="891.446" y="-156.1" font-family="Arial" font-size="8.00">org.ops4j.pax.logging.pax&#45;logging&#45;api(1.7.0)</text>
</g>
<!-- org_liveSense_core&#45;&gt;org_ops4j_pax_logging_pax_logging_api -->
<g id="edge11" class="edge"><title>org_liveSense_core&#45;&gt;org_ops4j_pax_logging_pax_logging_api</title>
<path fill="none" stroke="green" d="M897.07,-601.974C953.422,-593.876 1026.31,-579.208 1044.45,-556 1067.98,-525.893 984.173,-253.435 962.446,-222 954.085,-209.903 942.159,-199.351 930.462,-190.862"/>
<polygon fill="green" stroke="green" points="932.259,-187.85 922.04,-185.053 928.284,-193.612 932.259,-187.85"/>
</g>
<!-- org_apache_servicemix_bundles_guava -->
<g id="node12" class="node"><title>org_apache_servicemix_bundles_guava</title>
<polygon fill="#3182bd" stroke="black" points="568.946,-519 568.946,-555 753.946,-555 753.946,-519 568.946,-519"/>
<text text-anchor="middle" x="661.446" y="-544.1" font-family="Arial" font-size="8.00">Apache ServiceMix :: Bundles :: guava</text>
<polyline fill="none" stroke="black" points="568.946,-537 753.946,-537 "/>
<text text-anchor="middle" x="661.446" y="-526.1" font-family="Arial" font-size="8.00">org.apache.servicemix.bundles.guava(11.0.0.1)</text>
</g>
<!-- org_liveSense_core&#45;&gt;org_apache_servicemix_bundles_guava -->
<g id="edge12" class="edge"><title>org_liveSense_core&#45;&gt;org_apache_servicemix_bundles_guava</title>
<path fill="none" stroke="green" d="M788.106,-592.937C764.727,-582.797 734.887,-569.854 710.044,-559.078"/>
<polygon fill="green" stroke="green" points="711.358,-555.833 700.791,-555.065 708.572,-562.255 711.358,-555.833"/>
</g>
<!-- net_entropysoft_transmorph -->
<g id="node13" class="node"><title>net_entropysoft_transmorph</title>
<polygon fill="#3182bd" stroke="black" points="900.946,-519 900.946,-555 1035.95,-555 1035.95,-519 900.946,-519"/>
<text text-anchor="middle" x="968.446" y="-544.1" font-family="Arial" font-size="8.00">Transmorph</text>
<polyline fill="none" stroke="black" points="900.946,-537 1035.95,-537 "/>
<text text-anchor="middle" x="968.446" y="-526.1" font-family="Arial" font-size="8.00">net.entropysoft.transmorph(3.1.1)</text>
</g>
<!-- org_liveSense_core&#45;&gt;net_entropysoft_transmorph -->
<g id="edge13" class="edge"><title>org_liveSense_core&#45;&gt;net_entropysoft_transmorph</title>
<path fill="none" stroke="green" d="M860.861,-592.937C880.298,-583.012 904.993,-570.401 925.82,-559.766"/>
<polygon fill="green" stroke="green" points="927.468,-562.855 934.782,-555.19 924.285,-556.621 927.468,-562.855"/>
</g>
<!-- org_apache_jackrabbit_jackrabbit_jcr_commons -->
<g id="node14" class="node"><title>org_apache_jackrabbit_jackrabbit_jcr_commons</title>
<polygon fill="#3182bd" stroke="black" points="1096.95,-519 1096.95,-555 1297.95,-555 1297.95,-519 1096.95,-519"/>
<text text-anchor="middle" x="1197.45" y="-544.1" font-family="Arial" font-size="8.00">Jackrabbit JCR Commons</text>
<polyline fill="none" stroke="black" points="1096.95,-537 1297.95,-537 "/>
<text text-anchor="middle" x="1197.45" y="-526.1" font-family="Arial" font-size="8.00">org.apache.jackrabbit.jackrabbit&#45;jcr&#45;commons(2.4.2)</text>
</g>
<!-- org_liveSense_core&#45;&gt;org_apache_jackrabbit_jackrabbit_jcr_commons -->
<g id="edge14" class="edge"><title>org_liveSense_core&#45;&gt;org_apache_jackrabbit_jackrabbit_jcr_commons</title>
<path fill="none" stroke="green" d="M897.04,-596.457C954.267,-585.321 1036.03,-569.412 1099.8,-557.001"/>
<polygon fill="green" stroke="green" points="1100.73,-560.386 1109.88,-555.04 1099.39,-553.515 1100.73,-560.386"/>
</g>
<!-- org_apache_commons_beanutils&#45;&gt;org_ops4j_pax_logging_pax_logging_api -->
<g id="edge18" class="edge"><title>org_apache_commons_beanutils&#45;&gt;org_ops4j_pax_logging_pax_logging_api</title>
<path fill="none" stroke="#3182bd" d="M1494.79,-592.985C1504.58,-550.375 1523.67,-437.664 1471.45,-370 1410.75,-291.355 1131.1,-220.174 983.419,-187.26"/>
<polygon fill="#3182bd" stroke="#3182bd" points="983.972,-183.798 973.452,-185.052 982.458,-190.632 983.972,-183.798"/>
</g>
<!-- org_apache_commons_collections -->
<g id="node15" class="node"><title>org_apache_commons_collections</title>
<polygon fill="#9ecae1" stroke="black" points="1518.45,-519 1518.45,-555 1674.45,-555 1674.45,-519 1518.45,-519"/>
<text text-anchor="middle" x="1596.45" y="-544.1" font-family="Arial" font-size="8.00">Commons Collections</text>
<polyline fill="none" stroke="black" points="1518.45,-537 1674.45,-537 "/>
<text text-anchor="middle" x="1596.45" y="-526.1" font-family="Arial" font-size="8.00">org.apache.commons.collections(3.2.1)</text>
</g>
<!-- org_apache_commons_beanutils&#45;&gt;org_apache_commons_collections -->
<g id="edge19" class="edge"><title>org_apache_commons_beanutils&#45;&gt;org_apache_commons_collections</title>
<path fill="none" stroke="#3182bd" d="M1515.57,-592.937C1529.59,-583.412 1547.25,-571.415 1562.49,-561.063"/>
<polygon fill="#3182bd" stroke="#3182bd" points="1564.83,-563.704 1571.14,-555.19 1560.9,-557.914 1564.83,-563.704"/>
</g>
<!-- org_apache_sling_api&#45;&gt;org_apache_geronimo_specs_geronimo_servlet_3_0_spec -->
<g id="edge16" class="edge"><title>org_apache_sling_api&#45;&gt;org_apache_geronimo_specs_geronimo_servlet_3_0_spec</title>
<path fill="none" stroke="#3182bd" d="M827.446,-518.937C827.446,-510.807 827.446,-500.876 827.446,-491.705"/>
<polygon fill="#3182bd" stroke="#3182bd" points="830.946,-491.441 827.446,-481.441 823.946,-491.441 830.946,-491.441"/>
</g>
<!-- org_apache_sling_api&#45;&gt;org_ops4j_pax_logging_pax_logging_api -->
<g id="edge15" class="edge"><title>org_apache_sling_api&#45;&gt;org_ops4j_pax_logging_pax_logging_api</title>
<path fill="none" stroke="#3182bd" d="M879,-518.977C908.52,-508.225 941.605,-494.123 951.446,-482 977.76,-449.584 970.446,-431.752 970.446,-390 970.446,-390 970.446,-390 970.446,-314 970.446,-266.785 938.092,-220.208 914.795,-192.789"/>
<polygon fill="#3182bd" stroke="#3182bd" points="917.417,-190.471 908.2,-185.247 912.148,-195.079 917.417,-190.471"/>
</g>
<!-- org_apache_felix_eventadmin -->
<g id="node18" class="node"><title>org_apache_felix_eventadmin</title>
<polygon fill="#deebf7" stroke="black" points="585.446,-75 585.446,-111 725.446,-111 725.446,-75 585.446,-75"/>
<text text-anchor="middle" x="655.446" y="-100.1" font-family="Arial" font-size="8.00">Apache Felix EventAdmin</text>
<polyline fill="none" stroke="black" points="585.446,-93 725.446,-93 "/>
<text text-anchor="middle" x="655.446" y="-82.1" font-family="Arial" font-size="8.00">org.apache.felix.eventadmin(1.3.2)</text>
</g>
<!-- org_apache_sling_commons_osgi&#45;&gt;org_apache_felix_eventadmin -->
<g id="edge17" class="edge"><title>org_apache_sling_commons_osgi&#45;&gt;org_apache_felix_eventadmin</title>
<path fill="none" stroke="#3182bd" d="M199.329,-150.379C204.099,-149.538 208.834,-148.737 213.446,-148 339.325,-127.889 486.423,-111.282 575.18,-102.008"/>
<polygon fill="#3182bd" stroke="#3182bd" points="575.592,-105.484 585.177,-100.969 574.869,-98.5219 575.592,-105.484"/>
</g>
<!-- org_apache_felix_scr&#45;&gt;org_ops4j_pax_logging_pax_logging_api -->
<g id="edge23" class="edge"><title>org_apache_felix_scr&#45;&gt;org_ops4j_pax_logging_pax_logging_api</title>
<path fill="none" stroke="#3182bd" d="M267.547,-518.976C229.384,-495.417 169.446,-449.023 169.446,-390 169.446,-390 169.446,-390 169.446,-314 169.446,-263.154 192.809,-246.348 237.446,-222 343.868,-163.95 656.385,-199.633 794.852,-185.852"/>
<polygon fill="#3182bd" stroke="#3182bd" points="795.368,-189.317 804.915,-184.723 794.587,-182.36 795.368,-189.317"/>
</g>
<!-- org_apache_karaf_shell_console -->
<g id="node16" class="node"><title>org_apache_karaf_shell_console</title>
<polygon fill="#9ecae1" stroke="black" points="462.446,-445 462.446,-481 628.446,-481 628.446,-445 462.446,-445"/>
<text text-anchor="middle" x="545.446" y="-470.1" font-family="Arial" font-size="8.00">Apache Karaf :: Shell :: Console</text>
<polyline fill="none" stroke="black" points="462.446,-463 628.446,-463 "/>
<text text-anchor="middle" x="545.446" y="-452.1" font-family="Arial" font-size="8.00">org.apache.karaf.shell.console(3.0.0.RC1)</text>
</g>
<!-- org_apache_felix_scr&#45;&gt;org_apache_karaf_shell_console -->
<g id="edge20" class="edge"><title>org_apache_felix_scr&#45;&gt;org_apache_karaf_shell_console</title>
<path fill="none" stroke="#3182bd" d="M356.982,-518.937C392.995,-508.439 439.311,-494.938 477.015,-483.948"/>
<polygon fill="#3182bd" stroke="#3182bd" points="478.282,-487.224 486.903,-481.065 476.323,-480.504 478.282,-487.224"/>
</g>
<!-- org_apache_felix_configadmin -->
<g id="node25" class="node"><title>org_apache_felix_configadmin</title>
<polygon fill="#bdbdbd" stroke="black" points="808.446,-1 808.446,-37 974.446,-37 974.446,-1 808.446,-1"/>
<text text-anchor="middle" x="891.446" y="-26.1" font-family="Arial" font-size="8.00">Apache Felix Configuration Admin Service</text>
<polyline fill="none" stroke="black" points="808.446,-19 974.446,-19 "/>
<text text-anchor="middle" x="891.446" y="-8.1" font-family="Arial" font-size="8.00">org.apache.felix.configadmin(1.6.0)</text>
</g>
<!-- org_apache_felix_scr&#45;&gt;org_apache_felix_configadmin -->
<g id="edge21" class="edge"><title>org_apache_felix_scr&#45;&gt;org_apache_felix_configadmin</title>
<path fill="none" stroke="#3182bd" d="M367.503,-523.855C379.16,-521.86 391.143,-519.844 402.446,-518 506.731,-500.989 537.734,-516.959 637.446,-482 669.388,-470.801 672.07,-456.697 703.446,-444 764.199,-419.416 786.815,-435.192 846.446,-408 963.788,-354.493 1084.45,-370.965 1084.45,-242 1084.45,-242 1084.45,-242 1084.45,-166 1084.45,-101.659 1015.38,-62.0503 959.881,-40.6082"/>
<polygon fill="#3182bd" stroke="#3182bd" points="960.994,-37.2876 950.401,-37.068 958.545,-43.8453 960.994,-37.2876"/>
</g>
<!-- org_apache_felix_metatype -->
<g id="node26" class="node"><title>org_apache_felix_metatype</title>
<polygon fill="#bdbdbd" stroke="black" points="589.946,-1 589.946,-37 720.946,-37 720.946,-1 589.946,-1"/>
<text text-anchor="middle" x="655.446" y="-26.1" font-family="Arial" font-size="8.00">Apache Felix Metatype Service</text>
<polyline fill="none" stroke="black" points="589.946,-19 720.946,-19 "/>
<text text-anchor="middle" x="655.446" y="-8.1" font-family="Arial" font-size="8.00">org.apache.felix.metatype(1.0.6)</text>
</g>
<!-- org_apache_felix_scr&#45;&gt;org_apache_felix_metatype -->
<g id="edge22" class="edge"><title>org_apache_felix_scr&#45;&gt;org_apache_felix_metatype</title>
<path fill="none" stroke="#3182bd" d="M244.272,-518.954C223.642,-510.402 201.113,-498.316 184.446,-482 68.4219,-368.418 -66.082,-273.899 36.4461,-148 104.228,-64.7674 429.893,-33.9959 579.72,-24.1115"/>
<polygon fill="#3182bd" stroke="#3182bd" points="580.01,-27.6001 589.764,-23.4628 579.559,-20.6146 580.01,-27.6001"/>
</g>
<!-- org_ops4j_pax_logging_pax_logging_api&#45;&gt;org_apache_felix_eventadmin -->
<g id="edge26" class="edge"><title>org_ops4j_pax_logging_pax_logging_api&#45;&gt;org_apache_felix_eventadmin</title>
<path fill="none" stroke="#9ecae1" d="M829.677,-148.937C794.306,-138.484 750.187,-125.053 715.164,-114.088"/>
<polygon fill="#9ecae1" stroke="#9ecae1" points="716.131,-110.723 705.542,-111.065 714.033,-117.401 716.131,-110.723"/>
</g>
<!-- org_apache_jackrabbit_jackrabbit_jcr_commons&#45;&gt;javax_jcr -->
<g id="edge24" class="edge"><title>org_apache_jackrabbit_jackrabbit_jcr_commons&#45;&gt;javax_jcr</title>
<path fill="none" stroke="#3182bd" d="M1232.39,-518.966C1250.35,-509.374 1272.06,-496.433 1289.45,-482 1313.28,-462.213 1336.01,-434.984 1351.1,-415.288"/>
<polygon fill="#3182bd" stroke="#3182bd" points="1354.06,-417.18 1357.28,-407.087 1348.47,-412.967 1354.06,-417.18"/>
</g>
<!-- org_apache_jackrabbit_jackrabbit_api -->
<g id="node17" class="node"><title>org_apache_jackrabbit_jackrabbit_api</title>
<polygon fill="#9ecae1" stroke="black" points="1114.45,-445 1114.45,-481 1280.45,-481 1280.45,-445 1114.45,-445"/>
<text text-anchor="middle" x="1197.45" y="-470.1" font-family="Arial" font-size="8.00">Apache Jackrabbit API</text>
<polyline fill="none" stroke="black" points="1114.45,-463 1280.45,-463 "/>
<text text-anchor="middle" x="1197.45" y="-452.1" font-family="Arial" font-size="8.00">org.apache.jackrabbit.jackrabbit&#45;api(2.4.2)</text>
</g>
<!-- org_apache_jackrabbit_jackrabbit_jcr_commons&#45;&gt;org_apache_jackrabbit_jackrabbit_api -->
<g id="edge25" class="edge"><title>org_apache_jackrabbit_jackrabbit_jcr_commons&#45;&gt;org_apache_jackrabbit_jackrabbit_api</title>
<path fill="none" stroke="#3182bd" d="M1197.45,-518.937C1197.45,-510.807 1197.45,-500.876 1197.45,-491.705"/>
<polygon fill="#3182bd" stroke="#3182bd" points="1200.95,-491.441 1197.45,-481.441 1193.95,-491.441 1200.95,-491.441"/>
</g>
<!-- org_apache_karaf_shell_console&#45;&gt;org_ops4j_pax_logging_pax_logging_api -->
<g id="edge32" class="edge"><title>org_apache_karaf_shell_console&#45;&gt;org_ops4j_pax_logging_pax_logging_api</title>
<path fill="none" stroke="#9ecae1" d="M628.659,-449.22C674.93,-440.595 732.985,-427.227 782.446,-408 844.412,-383.912 879.029,-391.474 912.446,-334 937.896,-290.23 918.957,-229.112 904.275,-194.559"/>
<polygon fill="#9ecae1" stroke="#9ecae1" points="907.353,-192.866 900.099,-185.145 900.955,-195.705 907.353,-192.866"/>
</g>
<!-- org_apache_karaf_shell_console&#45;&gt;org_apache_felix_eventadmin -->
<g id="edge29" class="edge"><title>org_apache_karaf_shell_console&#45;&gt;org_apache_felix_eventadmin</title>
<path fill="none" stroke="#9ecae1" d="M462.379,-451.402C416.846,-443.471 360.305,-430.071 313.446,-408 264.391,-384.894 240.497,-382.598 216.446,-334 208.955,-318.863 214.119,-312.728 216.446,-296 221.158,-262.139 213.523,-246.422 237.446,-222 327.377,-130.194 481.218,-103.836 575.078,-96.5115"/>
<polygon fill="#9ecae1" stroke="#9ecae1" points="575.373,-99.9994 585.093,-95.7844 574.866,-93.0178 575.373,-99.9994"/>
</g>
<!-- org_apache_aries_blueprint_api -->
<g id="node19" class="node"><title>org_apache_aries_blueprint_api</title>
<polygon fill="#deebf7" stroke="black" points="623.946,-297 623.946,-333 768.946,-333 768.946,-297 623.946,-297"/>
<text text-anchor="middle" x="696.446" y="-322.1" font-family="Arial" font-size="8.00">Apache Aries Blueprint API</text>
<polyline fill="none" stroke="black" points="623.946,-315 768.946,-315 "/>
<text text-anchor="middle" x="696.446" y="-304.1" font-family="Arial" font-size="8.00">org.apache.aries.blueprint.api(1.0.0)</text>
</g>
<!-- org_apache_karaf_shell_console&#45;&gt;org_apache_aries_blueprint_api -->
<g id="edge27" class="edge"><title>org_apache_karaf_shell_console&#45;&gt;org_apache_aries_blueprint_api</title>
<path fill="none" stroke="#9ecae1" d="M628.589,-446.844C669.388,-437.542 712.349,-424.286 724.446,-408 738.95,-388.474 727.878,-361.377 715.642,-341.649"/>
<polygon fill="#9ecae1" stroke="#9ecae1" points="718.462,-339.568 710.026,-333.158 712.623,-343.429 718.462,-339.568"/>
</g>
<!-- jline -->
<g id="node20" class="node"><title>jline</title>
<polygon fill="#deebf7" stroke="black" points="490.446,-371 490.446,-407 544.446,-407 544.446,-371 490.446,-371"/>
<text text-anchor="middle" x="517.446" y="-396.1" font-family="Arial" font-size="8.00">JLine</text>
<polyline fill="none" stroke="black" points="490.446,-389 544.446,-389 "/>
<text text-anchor="middle" x="517.446" y="-378.1" font-family="Arial" font-size="8.00">jline(2.9.0)</text>
</g>
<!-- org_apache_karaf_shell_console&#45;&gt;jline -->
<g id="edge28" class="edge"><title>org_apache_karaf_shell_console&#45;&gt;jline</title>
<path fill="none" stroke="#9ecae1" d="M538.811,-444.937C535.546,-436.542 531.534,-426.227 527.872,-416.81"/>
<polygon fill="#9ecae1" stroke="#9ecae1" points="531.115,-415.492 524.229,-407.441 524.591,-418.029 531.115,-415.492"/>
</g>
<!-- org_apache_aries_blueprint_core -->
<g id="node21" class="node"><title>org_apache_aries_blueprint_core</title>
<polygon fill="#deebf7" stroke="black" points="322.446,-371 322.446,-407 472.446,-407 472.446,-371 322.446,-371"/>
<text text-anchor="middle" x="397.446" y="-396.1" font-family="Arial" font-size="8.00">Apache Aries Blueprint Core</text>
<polyline fill="none" stroke="black" points="322.446,-389 472.446,-389 "/>
<text text-anchor="middle" x="397.446" y="-378.1" font-family="Arial" font-size="8.00">org.apache.aries.blueprint.core(1.1.0)</text>
</g>
<!-- org_apache_karaf_shell_console&#45;&gt;org_apache_aries_blueprint_core -->
<g id="edge30" class="edge"><title>org_apache_karaf_shell_console&#45;&gt;org_apache_aries_blueprint_core</title>
<path fill="none" stroke="#9ecae1" d="M510.372,-444.937C489.804,-434.931 463.626,-422.196 441.655,-411.507"/>
<polygon fill="#9ecae1" stroke="#9ecae1" points="443.048,-408.293 432.524,-407.065 439.986,-414.587 443.048,-408.293"/>
</g>
<!-- org_apache_sshd_core -->
<g id="node22" class="node"><title>org_apache_sshd_core</title>
<polygon fill="#deebf7" stroke="black" points="786.946,-297 786.946,-333 903.946,-333 903.946,-297 786.946,-297"/>
<text text-anchor="middle" x="845.446" y="-322.1" font-family="Arial" font-size="8.00">Apache Mina SSHD :: Core</text>
<polyline fill="none" stroke="black" points="786.946,-315 903.946,-315 "/>
<text text-anchor="middle" x="845.446" y="-304.1" font-family="Arial" font-size="8.00">org.apache.sshd.core(0.8.0)</text>
</g>
<!-- org_apache_karaf_shell_console&#45;&gt;org_apache_sshd_core -->
<g id="edge31" class="edge"><title>org_apache_karaf_shell_console&#45;&gt;org_apache_sshd_core</title>
<path fill="none" stroke="#9ecae1" d="M628.716,-448.093C665.113,-439.805 707.402,-427.067 742.446,-408 774.381,-390.625 804.62,-361.557 823.969,-340.743"/>
<polygon fill="#9ecae1" stroke="#9ecae1" points="826.684,-342.96 830.832,-333.212 821.51,-338.245 826.684,-342.96"/>
</g>
<!-- org_apache_karaf_jaas_boot -->
<g id="node23" class="node"><title>org_apache_karaf_jaas_boot</title>
<polygon fill="#deebf7" stroke="black" points="562.946,-371 562.946,-407 715.946,-407 715.946,-371 562.946,-371"/>
<text text-anchor="middle" x="639.446" y="-396.1" font-family="Arial" font-size="8.00">Apache Karaf :: JAAS :: Boot</text>
<polyline fill="none" stroke="black" points="562.946,-389 715.946,-389 "/>
<text text-anchor="middle" x="639.446" y="-378.1" font-family="Arial" font-size="8.00">org.apache.karaf.jaas.boot(3.0.0.RC1)</text>
</g>
<!-- org_apache_karaf_shell_console&#45;&gt;org_apache_karaf_jaas_boot -->
<g id="edge33" class="edge"><title>org_apache_karaf_shell_console&#45;&gt;org_apache_karaf_jaas_boot</title>
<path fill="none" stroke="#9ecae1" d="M567.723,-444.937C580.042,-435.501 595.529,-423.639 608.956,-413.354"/>
<polygon fill="#9ecae1" stroke="#9ecae1" points="611.193,-416.049 617.004,-407.19 606.936,-410.492 611.193,-416.049"/>
</g>
<!-- org_apache_jackrabbit_jackrabbit_api&#45;&gt;javax_jcr -->
<g id="edge34" class="edge"><title>org_apache_jackrabbit_jackrabbit_api&#45;&gt;javax_jcr</title>
<path fill="none" stroke="#9ecae1" d="M1238.21,-444.937C1262.54,-434.752 1293.62,-421.74 1319.43,-410.936"/>
<polygon fill="#9ecae1" stroke="#9ecae1" points="1320.81,-414.155 1328.68,-407.065 1318.1,-407.698 1320.81,-414.155"/>
</g>
<!-- org_apache_geronimo_specs_geronimo_jta_1_1_spec -->
<g id="node24" class="node"><title>org_apache_geronimo_specs_geronimo_jta_1_1_spec</title>
<polygon fill="#deebf7" stroke="black" points="1036.45,-371 1036.45,-407 1258.45,-407 1258.45,-371 1036.45,-371"/>
<text text-anchor="middle" x="1147.45" y="-396.1" font-family="Arial" font-size="8.00">geronimo&#45;jta_1.1_spec</text>
<polyline fill="none" stroke="black" points="1036.45,-389 1258.45,-389 "/>
<text text-anchor="middle" x="1147.45" y="-378.1" font-family="Arial" font-size="8.00">org.apache.geronimo.specs.geronimo&#45;jta_1.1_spec(1.1.1)</text>
</g>
<!-- org_apache_jackrabbit_jackrabbit_api&#45;&gt;org_apache_geronimo_specs_geronimo_jta_1_1_spec -->
<g id="edge35" class="edge"><title>org_apache_jackrabbit_jackrabbit_api&#45;&gt;org_apache_geronimo_specs_geronimo_jta_1_1_spec</title>
<path fill="none" stroke="#9ecae1" d="M1185.6,-444.937C1179.58,-436.277 1172.15,-425.573 1165.45,-415.921"/>
<polygon fill="#9ecae1" stroke="#9ecae1" points="1168.14,-413.658 1159.56,-407.441 1162.39,-417.651 1168.14,-413.658"/>
</g>
<!-- org_apache_felix_eventadmin&#45;&gt;org_ops4j_pax_logging_pax_logging_api -->
<g id="edge36" class="edge"><title>org_apache_felix_eventadmin&#45;&gt;org_ops4j_pax_logging_pax_logging_api</title>
<path fill="none" stroke="#deebf7" d="M717.222,-111.065C752.595,-121.519 796.714,-134.949 831.735,-145.914"/>
<polygon fill="#deebf7" stroke="#deebf7" points="830.768,-149.279 841.357,-148.937 832.866,-142.601 830.768,-149.279"/>
</g>
<!-- org_apache_felix_eventadmin&#45;&gt;org_apache_felix_configadmin -->
<g id="edge37" class="edge"><title>org_apache_felix_eventadmin&#45;&gt;org_apache_felix_configadmin</title>
<path fill="none" stroke="#deebf7" d="M711.375,-74.937C745.638,-64.484 789.661,-51.0532 825.602,-40.088"/>
<polygon fill="#deebf7" stroke="#deebf7" points="826.967,-43.3309 835.51,-37.0651 824.924,-36.6356 826.967,-43.3309"/>
</g>
<!-- org_apache_felix_eventadmin&#45;&gt;org_apache_felix_metatype -->
<g id="edge38" class="edge"><title>org_apache_felix_eventadmin&#45;&gt;org_apache_felix_metatype</title>
<path fill="none" stroke="#deebf7" d="M655.446,-74.937C655.446,-66.8072 655.446,-56.8761 655.446,-47.7047"/>
<polygon fill="#deebf7" stroke="#deebf7" points="658.946,-47.4406 655.446,-37.4407 651.946,-47.4407 658.946,-47.4406"/>
</g>
<!-- org_apache_aries_blueprint_core&#45;&gt;org_ops4j_pax_logging_pax_logging_api -->
<g id="edge42" class="edge"><title>org_apache_aries_blueprint_core&#45;&gt;org_ops4j_pax_logging_pax_logging_api</title>
<path fill="none" stroke="#deebf7" d="M396.109,-370.76C395.507,-350.326 397.751,-316.475 416.446,-296 442.51,-267.455 669.249,-215.272 799.809,-187.157"/>
<polygon fill="#deebf7" stroke="#deebf7" points="800.769,-190.531 809.812,-185.01 799.3,-183.687 800.769,-190.531"/>
</g>
<!-- org_apache_aries_blueprint_core&#45;&gt;org_apache_felix_eventadmin -->
<g id="edge41" class="edge"><title>org_apache_aries_blueprint_core&#45;&gt;org_apache_felix_eventadmin</title>
<path fill="none" stroke="#deebf7" d="M466.353,-370.981C513.503,-358.705 568.824,-342.804 576.446,-334 631.167,-270.799 567.849,-223.162 604.446,-148 609.817,-136.97 618.238,-126.681 626.702,-118.105"/>
<polygon fill="#deebf7" stroke="#deebf7" points="629.281,-120.482 634.075,-111.034 624.435,-115.43 629.281,-120.482"/>
</g>
<!-- org_apache_aries_blueprint_core&#45;&gt;org_apache_aries_blueprint_api -->
<g id="edge40" class="edge"><title>org_apache_aries_blueprint_core&#45;&gt;org_apache_aries_blueprint_api</title>
<path fill="none" stroke="#deebf7" d="M468.305,-370.937C512.629,-360.264 569.847,-346.485 615.892,-335.398"/>
<polygon fill="#deebf7" stroke="#deebf7" points="616.935,-338.747 625.837,-333.003 615.296,-331.941 616.935,-338.747"/>
</g>
<!-- org_apache_aries_proxy_api -->
<g id="node27" class="node"><title>org_apache_aries_proxy_api</title>
<polygon fill="#bdbdbd" stroke="black" points="235.446,-297 235.446,-333 369.446,-333 369.446,-297 235.446,-297"/>
<text text-anchor="middle" x="302.446" y="-322.1" font-family="Arial" font-size="8.00">Apache Aries Proxy API</text>
<polyline fill="none" stroke="black" points="235.446,-315 369.446,-315 "/>
<text text-anchor="middle" x="302.446" y="-304.1" font-family="Arial" font-size="8.00">org.apache.aries.proxy.api(1.0.0)</text>
</g>
<!-- org_apache_aries_blueprint_core&#45;&gt;org_apache_aries_proxy_api -->
<g id="edge39" class="edge"><title>org_apache_aries_blueprint_core&#45;&gt;org_apache_aries_proxy_api</title>
<path fill="none" stroke="#deebf7" d="M374.932,-370.937C362.482,-361.501 346.831,-349.639 333.261,-339.354"/>
<polygon fill="#deebf7" stroke="#deebf7" points="335.211,-336.441 325.127,-333.19 330.983,-342.02 335.211,-336.441"/>
</g>
<!-- org_apache_aries_util -->
<g id="node28" class="node"><title>org_apache_aries_util</title>
<polygon fill="#bdbdbd" stroke="black" points="246.446,-223 246.446,-259 358.446,-259 358.446,-223 246.446,-223"/>
<text text-anchor="middle" x="302.446" y="-248.1" font-family="Arial" font-size="8.00">Apache Aries Util</text>
<polyline fill="none" stroke="black" points="246.446,-241 358.446,-241 "/>
<text text-anchor="middle" x="302.446" y="-230.1" font-family="Arial" font-size="8.00">org.apache.aries.util(1.1.0)</text>
</g>
<!-- org_apache_aries_blueprint_core&#45;&gt;org_apache_aries_util -->
<g id="edge43" class="edge"><title>org_apache_aries_blueprint_core&#45;&gt;org_apache_aries_util</title>
<path fill="none" stroke="#deebf7" d="M322.199,-383.908C287.159,-377.767 248.438,-364.007 226.446,-334 216.463,-320.378 218.699,-311.007 226.446,-296 233.018,-283.269 244.131,-272.886 255.859,-264.749"/>
<polygon fill="#deebf7" stroke="#deebf7" points="257.937,-267.575 264.452,-259.22 254.149,-261.688 257.937,-267.575"/>
</g>
<!-- org_apache_aries_quiesce_api -->
<g id="node29" class="node"><title>org_apache_aries_quiesce_api</title>
<polygon fill="#bdbdbd" stroke="black" points="425.446,-297 425.446,-333 567.446,-333 567.446,-297 425.446,-297"/>
<text text-anchor="middle" x="496.446" y="-322.1" font-family="Arial" font-size="8.00">Apache Aries Quiesce API</text>
<polyline fill="none" stroke="black" points="425.446,-315 567.446,-315 "/>
<text text-anchor="middle" x="496.446" y="-304.1" font-family="Arial" font-size="8.00">org.apache.aries.quiesce.api(1.0.0)</text>
</g>
<!-- org_apache_aries_blueprint_core&#45;&gt;org_apache_aries_quiesce_api -->
<g id="edge44" class="edge"><title>org_apache_aries_blueprint_core&#45;&gt;org_apache_aries_quiesce_api</title>
<path fill="none" stroke="#deebf7" d="M420.908,-370.937C433.882,-361.501 450.193,-349.639 464.334,-339.354"/>
<polygon fill="#deebf7" stroke="#deebf7" points="466.781,-341.902 472.81,-333.19 462.664,-336.241 466.781,-341.902"/>
</g>
<!-- org_apache_sshd_core&#45;&gt;org_ops4j_pax_logging_pax_logging_api -->
<g id="edge45" class="edge"><title>org_apache_sshd_core&#45;&gt;org_ops4j_pax_logging_pax_logging_api</title>
<path fill="none" stroke="#deebf7" d="M856.561,-296.638C862.682,-286.351 869.932,-272.851 874.446,-260 881.87,-238.863 886.229,-213.795 888.671,-195.169"/>
<polygon fill="#deebf7" stroke="#deebf7" points="892.172,-195.372 889.896,-185.025 885.222,-194.533 892.172,-195.372"/>
</g>
<!-- org_apache_mina_core -->
<g id="node30" class="node"><title>org_apache_mina_core</title>
<polygon fill="#bdbdbd" stroke="black" points="748.946,-223 748.946,-259 865.946,-259 865.946,-223 748.946,-223"/>
<text text-anchor="middle" x="807.446" y="-248.1" font-family="Arial" font-size="8.00">Apache MINA Core</text>
<polyline fill="none" stroke="black" points="748.946,-241 865.946,-241 "/>
<text text-anchor="middle" x="807.446" y="-230.1" font-family="Arial" font-size="8.00">org.apache.mina.core(2.0.7)</text>
</g>
<!-- org_apache_sshd_core&#45;&gt;org_apache_mina_core -->
<g id="edge46" class="edge"><title>org_apache_sshd_core&#45;&gt;org_apache_mina_core</title>
<path fill="none" stroke="#deebf7" d="M836.441,-296.937C831.963,-288.454 826.451,-278.009 821.439,-268.513"/>
<polygon fill="#deebf7" stroke="#deebf7" points="824.414,-266.651 816.651,-259.441 818.223,-269.918 824.414,-266.651"/>
</g>
<!-- bcprov -->
<g id="node31" class="node"><title>bcprov</title>
<polygon fill="#bdbdbd" stroke="black" points="669.946,-223 669.946,-259 730.946,-259 730.946,-223 669.946,-223"/>
<text text-anchor="middle" x="700.446" y="-248.1" font-family="Arial" font-size="8.00">bcprov</text>
<polyline fill="none" stroke="black" points="669.946,-241 730.946,-241 "/>
<text text-anchor="middle" x="700.446" y="-230.1" font-family="Arial" font-size="8.00">bcprov(1.46)</text>
</g>
<!-- org_apache_sshd_core&#45;&gt;bcprov -->
<g id="edge47" class="edge"><title>org_apache_sshd_core&#45;&gt;bcprov</title>
<path fill="none" stroke="#deebf7" d="M811.083,-296.937C789.832,-286.385 762.47,-272.798 740.274,-261.777"/>
<polygon fill="#deebf7" stroke="#deebf7" points="741.624,-258.539 731.111,-257.227 738.511,-264.809 741.624,-258.539"/>
</g>
<!-- org_apache_felix_configadmin&#45;&gt;org_ops4j_pax_logging_pax_logging_api -->
<g id="edge48" class="edge"><title>org_apache_felix_configadmin&#45;&gt;org_ops4j_pax_logging_pax_logging_api</title>
<path fill="none" stroke="#bdbdbd" d="M891.446,-37.3779C891.446,-62.4981 891.446,-109.19 891.446,-138.872"/>
<polygon fill="#bdbdbd" stroke="#bdbdbd" points="887.946,-138.966 891.446,-148.966 894.946,-138.966 887.946,-138.966"/>
</g>
<!-- org_apache_felix_metatype&#45;&gt;org_ops4j_pax_logging_pax_logging_api -->
<g id="edge49" class="edge"><title>org_apache_felix_metatype&#45;&gt;org_ops4j_pax_logging_pax_logging_api</title>
<path fill="none" stroke="#bdbdbd" d="M683.17,-37.151C725.893,-63.5816 807.834,-114.274 855.204,-143.579"/>
<polygon fill="#bdbdbd" stroke="#bdbdbd" points="853.566,-146.682 863.912,-148.966 857.249,-140.729 853.566,-146.682"/>
</g>
<!-- org_apache_aries_proxy_api&#45;&gt;org_apache_aries_util -->
<g id="edge50" class="edge"><title>org_apache_aries_proxy_api&#45;&gt;org_apache_aries_util</title>
<path fill="none" stroke="#bdbdbd" d="M302.446,-296.937C302.446,-288.807 302.446,-278.876 302.446,-269.705"/>
<polygon fill="#bdbdbd" stroke="#bdbdbd" points="305.946,-269.441 302.446,-259.441 298.946,-269.441 305.946,-269.441"/>
</g>
<!-- org_apache_aries_util&#45;&gt;org_ops4j_pax_logging_pax_logging_api -->
<g id="edge53" class="edge"><title>org_apache_aries_util&#45;&gt;org_ops4j_pax_logging_pax_logging_api</title>
<path fill="none" stroke="#bdbdbd" d="M358.816,-235.235C448.704,-227.327 630.238,-210.092 794.591,-186.062"/>
<polygon fill="#bdbdbd" stroke="#bdbdbd" points="795.508,-189.464 804.89,-184.543 794.487,-182.539 795.508,-189.464"/>
</g>
<!-- org_apache_mina_core&#45;&gt;org_ops4j_pax_logging_pax_logging_api -->
<g id="edge51" class="edge"><title>org_apache_mina_core&#45;&gt;org_ops4j_pax_logging_pax_logging_api</title>
<path fill="none" stroke="#bdbdbd" d="M827.353,-222.937C838.154,-213.679 851.68,-202.086 863.519,-191.938"/>
<polygon fill="#bdbdbd" stroke="#bdbdbd" points="866.076,-194.355 871.391,-185.19 861.521,-189.041 866.076,-194.355"/>
</g>
<!-- org_apache_servicemix_bundles_junit -->
<g id="node32" class="node"><title>org_apache_servicemix_bundles_junit</title>
<polygon fill="#bdbdbd" stroke="black" points="613.946,-149 613.946,-185 786.946,-185 786.946,-149 613.946,-149"/>
<text text-anchor="middle" x="700.446" y="-174.1" font-family="Arial" font-size="8.00">Apache ServiceMix :: Bundles :: junit</text>
<polyline fill="none" stroke="black" points="613.946,-167 786.946,-167 "/>
<text text-anchor="middle" x="700.446" y="-156.1" font-family="Arial" font-size="8.00">org.apache.servicemix.bundles.junit(3.8.2.4)</text>
</g>
<!-- bcprov&#45;&gt;org_apache_servicemix_bundles_junit -->
<g id="edge52" class="edge"><title>bcprov&#45;&gt;org_apache_servicemix_bundles_junit</title>
<path fill="none" stroke="#bdbdbd" d="M700.446,-222.937C700.446,-214.807 700.446,-204.876 700.446,-195.705"/>
<polygon fill="#bdbdbd" stroke="#bdbdbd" points="703.946,-195.441 700.446,-185.441 696.946,-195.441 703.946,-195.441"/>
</g>
</g>
</svg>
