<?xml version="1.0" encoding="UTF-8" standalone="no"?>
<!DOCTYPE svg PUBLIC "-//W3C//DTD SVG 1.1//EN"
 "http://www.w3.org/Graphics/SVG/1.1/DTD/svg11.dtd">
<!-- Generated by graphviz version 2.28.0 (20110509.1545)
 -->
<!-- Title: _anonymous_0 Pages: 1 -->
<svg width="1814pt" height="860pt"
 viewBox="0.00 0.00 1813.69 860.00" xmlns="http://www.w3.org/2000/svg" xmlns:xlink="http://www.w3.org/1999/xlink">
<g id="graph1" class="graph" transform="scale(1 1) rotate(0) translate(4 856)">
<title>_anonymous_0</title>
<polygon fill="white" stroke="white" points="-4,5 -4,-856 1810.69,-856 1810.69,5 -4,5"/>
<!-- org_liveSense_misc_queryBuilder -->
<g id="node1" class="node"><title>org_liveSense_misc_queryBuilder</title>
<polygon fill="yellow" stroke="black" points="1075.64,-815 1075.64,-851 1262.36,-851 1262.36,-815 1075.64,-815"/>
<text text-anchor="middle" x="1169" y="-839" font-family="Arial" font-size="8.00">liveSense :: Misc :: SQL QueryBuilder</text>
<polyline fill="none" stroke="black" points="1075.64,-833.801 1262.36,-833.801 "/>
<text text-anchor="middle" x="1169" y="-821.301" font-family="Arial" font-size="8.00">org.liveSense.misc.queryBuilder(2&#45;SNAPSHOT)</text>
</g>
<!-- org_liveSense_core -->
<g id="node2" class="node"><title>org_liveSense_core</title>
<polygon fill="green" stroke="black" points="660.646,-741 660.646,-777 799.354,-777 799.354,-741 660.646,-741"/>
<text text-anchor="middle" x="730" y="-765" font-family="Arial" font-size="8.00">liveSense :: Core</text>
<polyline fill="none" stroke="black" points="660.646,-759.801 799.354,-759.801 "/>
<text text-anchor="middle" x="730" y="-747.301" font-family="Arial" font-size="8.00">org.liveSense.core(2&#45;SNAPSHOT)</text>
</g>
<!-- org_liveSense_misc_queryBuilder&#45;&gt;org_liveSense_core -->
<g id="edge2" class="edge"><title>org_liveSense_misc_queryBuilder&#45;&gt;org_liveSense_core</title>
<path fill="none" stroke="yellow" d="M1075.63,-816.687C996.645,-803.732 884.677,-785.368 809.808,-773.089"/>
<polygon fill="yellow" stroke="yellow" points="809.931,-769.563 799.497,-771.398 808.798,-776.47 809.931,-769.563"/>
</g>
<!-- org_liveSense_misc_javax_persistence -->
<g id="node3" class="node"><title>org_liveSense_misc_javax_persistence</title>
<polygon fill="green" stroke="black" points="1262.19,-741 1262.19,-777 1465.81,-777 1465.81,-741 1262.19,-741"/>
<text text-anchor="middle" x="1364" y="-765" font-family="Arial" font-size="8.00">liveSense :: Extension :: javax.persistence</text>
<polyline fill="none" stroke="black" points="1262.19,-759.801 1465.81,-759.801 "/>
<text text-anchor="middle" x="1364" y="-747.301" font-family="Arial" font-size="8.00">org.liveSense.misc.javax.persistence(2&#45;SNAPSHOT)</text>
</g>
<!-- org_liveSense_misc_queryBuilder&#45;&gt;org_liveSense_misc_javax_persistence -->
<g id="edge4" class="edge"><title>org_liveSense_misc_queryBuilder&#45;&gt;org_liveSense_misc_javax_persistence</title>
<path fill="none" stroke="yellow" d="M1215.21,-814.937C1243.04,-804.663 1278.66,-791.511 1308.07,-780.652"/>
<polygon fill="yellow" stroke="yellow" points="1309.61,-783.812 1317.78,-777.065 1307.19,-777.246 1309.61,-783.812"/>
</g>
<!-- org_apache_commons_beanutils -->
<g id="node4" class="node"><title>org_apache_commons_beanutils</title>
<polygon fill="green" stroke="black" points="1093.85,-741 1093.85,-777 1244.15,-777 1244.15,-741 1093.85,-741"/>
<text text-anchor="middle" x="1169" y="-765" font-family="Arial" font-size="8.00">Commons BeanUtils</text>
<polyline fill="none" stroke="black" points="1093.85,-759.801 1244.15,-759.801 "/>
<text text-anchor="middle" x="1169" y="-747.301" font-family="Arial" font-size="8.00">org.apache.commons.beanutils(1.8.3)</text>
</g>
<!-- org_liveSense_misc_queryBuilder&#45;&gt;org_apache_commons_beanutils -->
<g id="edge6" class="edge"><title>org_liveSense_misc_queryBuilder&#45;&gt;org_apache_commons_beanutils</title>
<path fill="none" stroke="yellow" d="M1169,-814.937C1169,-806.807 1169,-796.876 1169,-787.705"/>
<polygon fill="yellow" stroke="yellow" points="1172.5,-787.441 1169,-777.441 1165.5,-787.441 1172.5,-787.441"/>
</g>
<!-- org_liveSense_core&#45;&gt;org_apache_commons_beanutils -->
<g id="edge12" class="edge"><title>org_liveSense_core&#45;&gt;org_apache_commons_beanutils</title>
<path fill="none" stroke="green" d="M799.451,-759C894.141,-759 988.831,-759 1083.52,-759"/>
<polygon fill="green" stroke="green" points="1083.57,-762.5 1093.57,-759 1083.57,-755.5 1083.57,-762.5"/>
</g>
<!-- org_apache_felix_scr -->
<g id="node5" class="node"><title>org_apache_felix_scr</title>
<polygon fill="#3182bd" stroke="black" points="63.3086,-667 63.3086,-703 200.691,-703 200.691,-667 63.3086,-667"/>
<text text-anchor="middle" x="132" y="-691" font-family="Arial" font-size="8.00">Apache Felix Declarative Services</text>
<polyline fill="none" stroke="black" points="63.3086,-685.801 200.691,-685.801 "/>
<text text-anchor="middle" x="132" y="-673.301" font-family="Arial" font-size="8.00">org.apache.felix.scr(1.6.0)</text>
</g>
<!-- org_liveSense_core&#45;&gt;org_apache_felix_scr -->
<g id="edge8" class="edge"><title>org_liveSense_core&#45;&gt;org_apache_felix_scr</title>
<path fill="none" stroke="green" d="M660.243,-753.502C562.06,-746.561 377.423,-731.282 210.75,-704.008"/>
<polygon fill="green" stroke="green" points="211.249,-700.543 200.811,-702.364 210.106,-707.45 211.249,-700.543"/>
</g>
<!-- org_apache_jackrabbit_jackrabbit_jcr_commons -->
<g id="node6" class="node"><title>org_apache_jackrabbit_jackrabbit_jcr_commons</title>
<polygon fill="#3182bd" stroke="black" points="883.74,-667 883.74,-703 1084.26,-703 1084.26,-667 883.74,-667"/>
<text text-anchor="middle" x="984" y="-691" font-family="Arial" font-size="8.00">Jackrabbit JCR Commons</text>
<polyline fill="none" stroke="black" points="883.74,-685.801 1084.26,-685.801 "/>
<text text-anchor="middle" x="984" y="-673.301" font-family="Arial" font-size="8.00">org.apache.jackrabbit.jackrabbit&#45;jcr&#45;commons(2.4.0)</text>
</g>
<!-- org_liveSense_core&#45;&gt;org_apache_jackrabbit_jackrabbit_jcr_commons -->
<g id="edge10" class="edge"><title>org_liveSense_core&#45;&gt;org_apache_jackrabbit_jackrabbit_jcr_commons</title>
<path fill="none" stroke="green" d="M790.194,-740.937C827.386,-730.395 875.262,-716.823 914.124,-705.807"/>
<polygon fill="green" stroke="green" points="915.132,-709.16 923.798,-703.065 913.223,-702.425 915.132,-709.16"/>
</g>
<!-- javax_jcr -->
<g id="node7" class="node"><title>javax_jcr</title>
<polygon fill="#3182bd" stroke="black" points="783.031,-519 783.031,-555 966.969,-555 966.969,-519 783.031,-519"/>
<text text-anchor="middle" x="875" y="-543" font-family="Arial" font-size="8.00">Content Repository for JavaTM Technology API</text>
<polyline fill="none" stroke="black" points="783.031,-537.801 966.969,-537.801 "/>
<text text-anchor="middle" x="875" y="-525.301" font-family="Arial" font-size="8.00">javax.jcr(2.0)</text>
</g>
<!-- org_liveSense_core&#45;&gt;javax_jcr -->
<g id="edge14" class="edge"><title>org_liveSense_core&#45;&gt;javax_jcr</title>
<path fill="none" stroke="green" d="M746.252,-740.806C755.97,-730.351 768.441,-716.623 779,-704 805.637,-672.158 815.061,-665.847 836,-630 848.238,-609.049 858.745,-583.53 865.759,-564.687"/>
<polygon fill="green" stroke="green" points="869.066,-565.835 869.192,-555.241 862.487,-563.444 869.066,-565.835"/>
</g>
<!-- org_apache_sling_jcr_api -->
<g id="node8" class="node"><title>org_apache_sling_jcr_api</title>
<polygon fill="#3182bd" stroke="black" points="682.293,-593 682.293,-629 827.707,-629 827.707,-593 682.293,-593"/>
<text text-anchor="middle" x="755" y="-617" font-family="Arial" font-size="8.00">Apache Sling Repository API Bundle</text>
<polyline fill="none" stroke="black" points="682.293,-611.801 827.707,-611.801 "/>
<text text-anchor="middle" x="755" y="-599.301" font-family="Arial" font-size="8.00">org.apache.sling.jcr.api(2.1.0)</text>
</g>
<!-- org_liveSense_core&#45;&gt;org_apache_sling_jcr_api -->
<g id="edge16" class="edge"><title>org_liveSense_core&#45;&gt;org_apache_sling_jcr_api</title>
<path fill="none" stroke="green" d="M743.986,-740.677C751.198,-730.616 759.25,-717.326 763,-704 768.981,-682.743 766.21,-657.728 762.374,-639.153"/>
<polygon fill="green" stroke="green" points="765.761,-638.265 760.116,-629.299 758.938,-639.828 765.761,-638.265"/>
</g>
<!-- org_apache_sling_commons_osgi -->
<g id="node9" class="node"><title>org_apache_sling_commons_osgi</title>
<polygon fill="#3182bd" stroke="black" points="-0.253906,-445 -0.253906,-481 152.254,-481 152.254,-445 -0.253906,-445"/>
<text text-anchor="middle" x="76" y="-469" font-family="Arial" font-size="8.00">Apache Sling Commons OSGi support</text>
<polyline fill="none" stroke="black" points="-0.253906,-463.801 152.254,-463.801 "/>
<text text-anchor="middle" x="76" y="-451.301" font-family="Arial" font-size="8.00">org.apache.sling.commons.osgi(2.1.0)</text>
</g>
<!-- org_liveSense_core&#45;&gt;org_apache_sling_commons_osgi -->
<g id="edge18" class="edge"><title>org_liveSense_core&#45;&gt;org_apache_sling_commons_osgi</title>
<path fill="none" stroke="green" d="M660.589,-757.662C496.346,-756.143 94.5579,-747.927 54,-704 -0.550359,-644.918 39.2039,-539.282 62.4123,-490.289"/>
<polygon fill="green" stroke="green" points="65.5696,-491.8 66.8005,-481.277 59.276,-488.736 65.5696,-491.8"/>
</g>
<!-- org_apache_felix_http_jetty -->
<g id="node10" class="node"><title>org_apache_felix_http_jetty</title>
<polygon fill="#3182bd" stroke="black" points="933.969,-75 933.969,-111 1062.03,-111 1062.03,-75 933.969,-75"/>
<text text-anchor="middle" x="998" y="-99" font-family="Arial" font-size="8.00">Apache Felix Http Jetty</text>
<polyline fill="none" stroke="black" points="933.969,-93.8008 1062.03,-93.8008 "/>
<text text-anchor="middle" x="998" y="-81.3008" font-family="Arial" font-size="8.00">org.apache.felix.http.jetty(2.2.0)</text>
</g>
<!-- org_liveSense_core&#45;&gt;org_apache_felix_http_jetty -->
<g id="edge20" class="edge"><title>org_liveSense_core&#45;&gt;org_apache_felix_http_jetty</title>
<path fill="none" stroke="green" d="M724.439,-740.735C717.97,-721.746 706.325,-690.654 692,-666 681.816,-648.474 674.921,-647.076 664,-630 599.315,-528.852 540,-510.063 540,-390 540,-390 540,-390 540,-240 540,-196.56 539.124,-175.192 573,-148 625.538,-105.828 816.541,-96.3002 923.734,-94.334"/>
<polygon fill="green" stroke="green" points="923.897,-97.8319 933.838,-94.1665 923.781,-90.8329 923.897,-97.8319"/>
</g>
<!-- net_entropysoft_transmorph -->
<g id="node11" class="node"><title>net_entropysoft_transmorph</title>
<polygon fill="#3182bd" stroke="black" points="218.637,-667 218.637,-703 353.363,-703 353.363,-667 218.637,-667"/>
<text text-anchor="middle" x="286" y="-691" font-family="Arial" font-size="8.00">Transmorph</text>
<polyline fill="none" stroke="black" points="218.637,-685.801 353.363,-685.801 "/>
<text text-anchor="middle" x="286" y="-673.301" font-family="Arial" font-size="8.00">net.entropysoft.transmorph(3.1.1)</text>
</g>
<!-- org_liveSense_core&#45;&gt;net_entropysoft_transmorph -->
<g id="edge22" class="edge"><title>org_liveSense_core&#45;&gt;net_entropysoft_transmorph</title>
<path fill="none" stroke="green" d="M660.377,-749.517C588.513,-740.362 472.982,-724.537 363.439,-703.997"/>
<polygon fill="green" stroke="green" points="364.014,-700.544 353.538,-702.125 362.714,-707.422 364.014,-700.544"/>
</g>
<!-- com_google_guava -->
<g id="node12" class="node"><title>com_google_guava</title>
<polygon fill="#3182bd" stroke="black" points="371.85,-667 371.85,-703 538.15,-703 538.15,-667 371.85,-667"/>
<text text-anchor="middle" x="455" y="-691" font-family="Arial" font-size="8.00">Guava: Google Core Libraries for Java 1.5</text>
<polyline fill="none" stroke="black" points="371.85,-685.801 538.15,-685.801 "/>
<text text-anchor="middle" x="455" y="-673.301" font-family="Arial" font-size="8.00">com.google.guava(10.0.0)</text>
</g>
<!-- org_liveSense_core&#45;&gt;com_google_guava -->
<g id="edge24" class="edge"><title>org_liveSense_core&#45;&gt;com_google_guava</title>
<path fill="none" stroke="green" d="M664.829,-740.937C624.392,-730.35 572.289,-716.708 530.119,-705.667"/>
<polygon fill="green" stroke="green" points="530.74,-702.212 520.179,-703.065 528.967,-708.984 530.74,-702.212"/>
</g>
<!-- org_apache_sling_api -->
<g id="node13" class="node"><title>org_apache_sling_api</title>
<polygon fill="#3182bd" stroke="black" points="1025.64,-149 1025.64,-185 1136.36,-185 1136.36,-149 1025.64,-149"/>
<text text-anchor="middle" x="1081" y="-173" font-family="Arial" font-size="8.00">Apache Sling API</text>
<polyline fill="none" stroke="black" points="1025.64,-167.801 1136.36,-167.801 "/>
<text text-anchor="middle" x="1081" y="-155.301" font-family="Arial" font-size="8.00">org.apache.sling.api(2.2.4)</text>
</g>
<!-- org_liveSense_core&#45;&gt;org_apache_sling_api -->
<g id="edge26" class="edge"><title>org_liveSense_core&#45;&gt;org_apache_sling_api</title>
<path fill="none" stroke="green" d="M799.65,-756.598C892.804,-753.26 1051.12,-741.993 1093,-704 1124.22,-675.682 1116,-654.147 1116,-612 1116,-612 1116,-612 1116,-314 1116,-271.331 1101.69,-223.533 1091.37,-194.612"/>
<polygon fill="green" stroke="green" points="1094.65,-193.389 1087.91,-185.209 1088.08,-195.803 1094.65,-193.389"/>
</g>
<!-- org_apache_commons_lang -->
<g id="node14" class="node"><title>org_apache_commons_lang</title>
<polygon fill="#3182bd" stroke="black" points="556.637,-667 556.637,-703 683.363,-703 683.363,-667 556.637,-667"/>
<text text-anchor="middle" x="620" y="-691" font-family="Arial" font-size="8.00">Commons Lang</text>
<polyline fill="none" stroke="black" points="556.637,-685.801 683.363,-685.801 "/>
<text text-anchor="middle" x="620" y="-673.301" font-family="Arial" font-size="8.00">org.apache.commons.lang(2.5)</text>
</g>
<!-- org_liveSense_core&#45;&gt;org_apache_commons_lang -->
<g id="edge28" class="edge"><title>org_liveSense_core&#45;&gt;org_apache_commons_lang</title>
<path fill="none" stroke="green" d="M703.932,-740.937C689.244,-731.323 670.708,-719.19 654.793,-708.774"/>
<polygon fill="green" stroke="green" points="656.546,-705.738 646.263,-703.19 652.713,-711.595 656.546,-705.738"/>
</g>
<!-- slf4j_api -->
<g id="node15" class="node"><title>slf4j_api</title>
<polygon fill="#3182bd" stroke="black" points="852.877,-445 852.877,-481 919.123,-481 919.123,-445 852.877,-445"/>
<text text-anchor="middle" x="886" y="-469" font-family="Arial" font-size="8.00">slf4j&#45;api</text>
<polyline fill="none" stroke="black" points="852.877,-463.801 919.123,-463.801 "/>
<text text-anchor="middle" x="886" y="-451.301" font-family="Arial" font-size="8.00">slf4j.api(1.6.1)</text>
</g>
<!-- org_liveSense_core&#45;&gt;slf4j_api -->
<g id="edge30" class="edge"><title>org_liveSense_core&#45;&gt;slf4j_api</title>
<path fill="none" stroke="green" d="M733.334,-740.827C736.191,-721.363 738.035,-689.317 725,-666 711.283,-641.465 686.046,-654.898 673,-630 665.162,-615.04 665.363,-607.063 673,-592 706.541,-525.846 791.094,-490.818 843.017,-474.944"/>
<polygon fill="green" stroke="green" points="844.025,-478.296 852.627,-472.111 842.046,-471.582 844.025,-478.296"/>
</g>
<!-- org_apache_commons_collections -->
<g id="node20" class="node"><title>org_apache_commons_collections</title>
<polygon fill="#9ecae1" stroke="black" points="1197.19,-667 1197.19,-703 1352.81,-703 1352.81,-667 1197.19,-667"/>
<text text-anchor="middle" x="1275" y="-691" font-family="Arial" font-size="8.00">Commons Collections</text>
<polyline fill="none" stroke="black" points="1197.19,-685.801 1352.81,-685.801 "/>
<text text-anchor="middle" x="1275" y="-673.301" font-family="Arial" font-size="8.00">org.apache.commons.collections(3.2.1)</text>
</g>
<!-- org_apache_commons_beanutils&#45;&gt;org_apache_commons_collections -->
<g id="edge42" class="edge"><title>org_apache_commons_beanutils&#45;&gt;org_apache_commons_collections</title>
<path fill="none" stroke="#3182bd" d="M1194.12,-740.937C1208.14,-731.412 1225.81,-719.415 1241.05,-709.063"/>
<polygon fill="#3182bd" stroke="#3182bd" points="1243.39,-711.704 1249.69,-703.19 1239.45,-705.914 1243.39,-711.704"/>
</g>
<!-- jcl_over_slf4j -->
<g id="node21" class="node"><title>jcl_over_slf4j</title>
<polygon fill="#9ecae1" stroke="black" points="1143.77,-593 1143.77,-629 1224.23,-629 1224.23,-593 1143.77,-593"/>
<text text-anchor="middle" x="1184" y="-617" font-family="Arial" font-size="8.00">jcl&#45;over&#45;slf4j</text>
<polyline fill="none" stroke="black" points="1143.77,-611.801 1224.23,-611.801 "/>
<text text-anchor="middle" x="1184" y="-599.301" font-family="Arial" font-size="8.00">jcl.over.slf4j(1.6.1)</text>
</g>
<!-- org_apache_commons_beanutils&#45;&gt;jcl_over_slf4j -->
<g id="edge44" class="edge"><title>org_apache_commons_beanutils&#45;&gt;jcl_over_slf4j</title>
<path fill="none" stroke="#3182bd" d="M1170.75,-740.966C1173.31,-716.045 1178.11,-669.374 1181.17,-639.537"/>
<polygon fill="#3182bd" stroke="#3182bd" points="1184.67,-639.683 1182.21,-629.378 1177.71,-638.968 1184.67,-639.683"/>
</g>
<!-- org_apache_felix_metatype -->
<g id="node16" class="node"><title>org_apache_felix_metatype</title>
<polygon fill="#9ecae1" stroke="black" points="235.635,-593 235.635,-629 366.365,-629 366.365,-593 235.635,-593"/>
<text text-anchor="middle" x="301" y="-617" font-family="Arial" font-size="8.00">Apache Felix Metatype Service</text>
<polyline fill="none" stroke="black" points="235.635,-611.801 366.365,-611.801 "/>
<text text-anchor="middle" x="301" y="-599.301" font-family="Arial" font-size="8.00">org.apache.felix.metatype(1.0.4)</text>
</g>
<!-- org_apache_felix_scr&#45;&gt;org_apache_felix_metatype -->
<g id="edge32" class="edge"><title>org_apache_felix_scr&#45;&gt;org_apache_felix_metatype</title>
<path fill="none" stroke="#3182bd" d="M172.051,-666.937C195.852,-656.797 226.231,-643.854 251.524,-633.078"/>
<polygon fill="#3182bd" stroke="#3182bd" points="253.116,-636.205 260.944,-629.065 250.373,-629.765 253.116,-636.205"/>
</g>
<!-- org_apache_sling_commons_logservice -->
<g id="node17" class="node"><title>org_apache_sling_commons_logservice</title>
<polygon fill="#9ecae1" stroke="black" points="328.955,-519 328.955,-555 513.045,-555 513.045,-519 328.955,-519"/>
<text text-anchor="middle" x="421" y="-543" font-family="Arial" font-size="8.00">Apache Sling OSGi LogService Implementation</text>
<polyline fill="none" stroke="black" points="328.955,-537.801 513.045,-537.801 "/>
<text text-anchor="middle" x="421" y="-525.301" font-family="Arial" font-size="8.00">org.apache.sling.commons.logservice(1.0.0)</text>
</g>
<!-- org_apache_felix_scr&#45;&gt;org_apache_sling_commons_logservice -->
<g id="edge34" class="edge"><title>org_apache_felix_scr&#45;&gt;org_apache_sling_commons_logservice</title>
<path fill="none" stroke="#3182bd" d="M200.893,-668.054C203.97,-667.357 207.017,-666.67 210,-666 283.236,-649.561 315.75,-676.078 375,-630 395.742,-613.87 407.837,-585.889 414.372,-565.009"/>
<polygon fill="#3182bd" stroke="#3182bd" points="417.814,-565.704 417.224,-555.125 411.089,-563.763 417.814,-565.704"/>
</g>
<!-- org_apache_felix_configadmin -->
<g id="node18" class="node"><title>org_apache_felix_configadmin</title>
<polygon fill="#9ecae1" stroke="black" points="303.295,-1 303.295,-37 468.705,-37 468.705,-1 303.295,-1"/>
<text text-anchor="middle" x="386" y="-25" font-family="Arial" font-size="8.00">Apache Felix Configuration Admin Service</text>
<polyline fill="none" stroke="black" points="303.295,-19.8008 468.705,-19.8008 "/>
<text text-anchor="middle" x="386" y="-7.30078" font-family="Arial" font-size="8.00">org.apache.felix.configadmin(1.2.8)</text>
</g>
<!-- org_apache_felix_scr&#45;&gt;org_apache_felix_configadmin -->
<g id="edge36" class="edge"><title>org_apache_felix_scr&#45;&gt;org_apache_felix_configadmin</title>
<path fill="none" stroke="#3182bd" d="M145.882,-666.747C165.507,-640.562 199,-588.479 199,-538 199,-538 199,-538 199,-166 199,-102.471 266.882,-62.4961 320.848,-40.7534"/>
<polygon fill="#3182bd" stroke="#3182bd" points="322.352,-43.9236 330.4,-37.0331 319.812,-37.4009 322.352,-43.9236"/>
</g>
<!-- org_apache_jackrabbit_jackrabbit_jcr_commons&#45;&gt;javax_jcr -->
<g id="edge38" class="edge"><title>org_apache_jackrabbit_jackrabbit_jcr_commons&#45;&gt;javax_jcr</title>
<path fill="none" stroke="#3182bd" d="M954.775,-666.939C940.646,-657.511 924.337,-644.725 913,-630 898.076,-610.617 888.038,-584.539 882.045,-565.098"/>
<polygon fill="#3182bd" stroke="#3182bd" points="885.359,-563.958 879.201,-555.336 878.638,-565.916 885.359,-563.958"/>
</g>
<!-- org_apache_jackrabbit_jackrabbit_api -->
<g id="node19" class="node"><title>org_apache_jackrabbit_jackrabbit_api</title>
<polygon fill="#9ecae1" stroke="black" points="922.293,-593 922.293,-629 1087.71,-629 1087.71,-593 922.293,-593"/>
<text text-anchor="middle" x="1005" y="-617" font-family="Arial" font-size="8.00">Apache Jackrabbit API</text>
<polyline fill="none" stroke="black" points="922.293,-611.801 1087.71,-611.801 "/>
<text text-anchor="middle" x="1005" y="-599.301" font-family="Arial" font-size="8.00">org.apache.jackrabbit.jackrabbit&#45;api(2.4.0)</text>
</g>
<!-- org_apache_jackrabbit_jackrabbit_jcr_commons&#45;&gt;org_apache_jackrabbit_jackrabbit_api -->
<g id="edge40" class="edge"><title>org_apache_jackrabbit_jackrabbit_jcr_commons&#45;&gt;org_apache_jackrabbit_jackrabbit_api</title>
<path fill="none" stroke="#3182bd" d="M988.977,-666.937C991.399,-658.63 994.371,-648.444 997.094,-639.108"/>
<polygon fill="#3182bd" stroke="#3182bd" points="1000.47,-640.021 999.913,-629.441 993.753,-638.061 1000.47,-640.021"/>
</g>
<!-- org_apache_sling_jcr_api&#45;&gt;javax_jcr -->
<g id="edge46" class="edge"><title>org_apache_sling_jcr_api&#45;&gt;javax_jcr</title>
<path fill="none" stroke="#3182bd" d="M783.438,-592.937C799.61,-583.234 820.057,-570.966 837.525,-560.485"/>
<polygon fill="#3182bd" stroke="#3182bd" points="839.576,-563.336 846.35,-555.19 835.974,-557.334 839.576,-563.336"/>
</g>
<!-- org_apache_felix_eventadmin -->
<g id="node32" class="node"><title>org_apache_felix_eventadmin</title>
<polygon fill="#bdbdbd" stroke="black" points="249.184,-149 249.184,-185 392.816,-185 392.816,-149 249.184,-149"/>
<text text-anchor="middle" x="321" y="-173" font-family="Arial" font-size="8.00">Apache Felix EventAdmin</text>
<polyline fill="none" stroke="black" points="249.184,-167.801 392.816,-167.801 "/>
<text text-anchor="middle" x="321" y="-155.301" font-family="Arial" font-size="8.00">org.apache.felix.eventadmin(1.2.14)</text>
</g>
<!-- org_apache_sling_commons_osgi&#45;&gt;org_apache_felix_eventadmin -->
<g id="edge48" class="edge"><title>org_apache_sling_commons_osgi&#45;&gt;org_apache_felix_eventadmin</title>
<path fill="none" stroke="#3182bd" d="M90.2312,-444.923C131.503,-395.396 251.393,-251.529 300.081,-193.103"/>
<polygon fill="#3182bd" stroke="#3182bd" points="303.016,-195.047 306.73,-185.125 297.639,-190.566 303.016,-195.047"/>
</g>
<!-- org_apache_felix_http_jetty&#45;&gt;slf4j_api -->
<g id="edge80" class="edge"><title>org_apache_felix_http_jetty&#45;&gt;slf4j_api</title>
<path fill="none" stroke="#bdbdbd" d="M933.61,-98.0852C825.905,-105.58 618.79,-123.079 597,-148 497.215,-262.123 741.561,-394.408 843.678,-442.918"/>
<polygon fill="#bdbdbd" stroke="#bdbdbd" points="842.273,-446.125 852.811,-447.213 845.252,-439.79 842.273,-446.125"/>
</g>
<!-- org_apache_felix_http_jetty&#45;&gt;org_apache_sling_commons_logservice -->
<g id="edge78" class="edge"><title>org_apache_felix_http_jetty&#45;&gt;org_apache_sling_commons_logservice</title>
<path fill="none" stroke="#bdbdbd" d="M933.717,-93.8957C820.205,-94.9067 590.171,-102.68 526,-148 488.819,-174.258 481,-194.482 481,-240 481,-390 481,-390 481,-390 481,-435.005 456.308,-482.352 438.604,-510.515"/>
<polygon fill="#bdbdbd" stroke="#bdbdbd" points="435.636,-508.66 433.142,-518.957 441.513,-512.462 435.636,-508.66"/>
</g>
<!-- org_apache_felix_http_jetty&#45;&gt;org_apache_felix_configadmin -->
<g id="edge82" class="edge"><title>org_apache_felix_http_jetty&#45;&gt;org_apache_felix_configadmin</title>
<path fill="none" stroke="#bdbdbd" d="M933.95,-84.4647C825.318,-71.6845 604.535,-45.71 478.91,-30.9306"/>
<polygon fill="#bdbdbd" stroke="#bdbdbd" points="479.258,-27.4475 468.917,-29.755 478.44,-34.3995 479.258,-27.4475"/>
</g>
<!-- org_apache_sling_api&#45;&gt;org_apache_felix_http_jetty -->
<g id="edge104" class="edge"><title>org_apache_sling_api&#45;&gt;org_apache_felix_http_jetty</title>
<path fill="none" stroke="#bdbdbd" d="M1061.33,-148.937C1050.66,-139.679 1037.29,-128.086 1025.6,-117.938"/>
<polygon fill="#bdbdbd" stroke="#bdbdbd" points="1027.66,-115.099 1017.82,-111.19 1023.08,-120.387 1027.66,-115.099"/>
</g>
<!-- org_apache_sling_api&#45;&gt;slf4j_api -->
<g id="edge106" class="edge"><title>org_apache_sling_api&#45;&gt;slf4j_api</title>
<path fill="none" stroke="#bdbdbd" d="M1069.64,-185.125C1036.89,-234.508 942.11,-377.403 903.092,-436.23"/>
<polygon fill="#bdbdbd" stroke="#bdbdbd" points="899.938,-434.654 897.327,-444.923 905.771,-438.524 899.938,-434.654"/>
</g>
<!-- ch_qos_logback_classic -->
<g id="node22" class="node"><title>ch_qos_logback_classic</title>
<polygon fill="#bdbdbd" stroke="black" points="1143.64,-371 1143.64,-407 1262.36,-407 1262.36,-371 1143.64,-371"/>
<text text-anchor="middle" x="1203" y="-395" font-family="Arial" font-size="8.00">Logback Classic Module</text>
<polyline fill="none" stroke="black" points="1143.64,-389.801 1262.36,-389.801 "/>
<text text-anchor="middle" x="1203" y="-377.301" font-family="Arial" font-size="8.00">ch.qos.logback.classic(1.0.3)</text>
</g>
<!-- slf4j_api&#45;&gt;ch_qos_logback_classic -->
<g id="edge58" class="edge"><title>slf4j_api&#45;&gt;ch_qos_logback_classic</title>
<path fill="none" stroke="#bdbdbd" d="M919.353,-453.387C969.967,-441.315 1066.99,-419.204 1133.38,-404.553"/>
<polygon fill="#bdbdbd" stroke="#bdbdbd" points="1134.34,-407.925 1143.35,-402.357 1132.84,-401.089 1134.34,-407.925"/>
</g>
<!-- org_apache_felix_metatype&#45;&gt;org_apache_sling_commons_logservice -->
<g id="edge50" class="edge"><title>org_apache_felix_metatype&#45;&gt;org_apache_sling_commons_logservice</title>
<path fill="none" stroke="#9ecae1" d="M329.438,-592.937C345.61,-583.234 366.057,-570.966 383.525,-560.485"/>
<polygon fill="#9ecae1" stroke="#9ecae1" points="385.576,-563.336 392.35,-555.19 381.974,-557.334 385.576,-563.336"/>
</g>
<!-- org_apache_sling_commons_logservice&#45;&gt;slf4j_api -->
<g id="edge56" class="edge"><title>org_apache_sling_commons_logservice&#45;&gt;slf4j_api</title>
<path fill="none" stroke="#deebf7" d="M513.147,-521.732C613.033,-506.266 768.149,-482.248 842.875,-470.677"/>
<polygon fill="#deebf7" stroke="#deebf7" points="843.525,-474.119 852.872,-469.13 842.454,-467.201 843.525,-474.119"/>
</g>
<!-- org_apache_felix_configadmin&#45;&gt;org_apache_sling_commons_logservice -->
<g id="edge102" class="edge"><title>org_apache_felix_configadmin&#45;&gt;org_apache_sling_commons_logservice</title>
<path fill="none" stroke="#bdbdbd" d="M392.915,-37.2089C403.115,-64.1901 421,-118.3 421,-166 421,-390 421,-390 421,-390 421,-431.356 421,-479.3 421,-508.637"/>
<polygon fill="#bdbdbd" stroke="#bdbdbd" points="417.5,-508.917 421,-518.917 424.5,-508.917 417.5,-508.917"/>
</g>
<!-- org_apache_jackrabbit_jackrabbit_api&#45;&gt;javax_jcr -->
<g id="edge52" class="edge"><title>org_apache_jackrabbit_jackrabbit_api&#45;&gt;javax_jcr</title>
<path fill="none" stroke="#9ecae1" d="M974.192,-592.937C956.432,-583.101 933.91,-570.627 914.818,-560.053"/>
<polygon fill="#9ecae1" stroke="#9ecae1" points="916.481,-556.973 906.038,-555.19 913.09,-563.097 916.481,-556.973"/>
</g>
<!-- jcl_over_slf4j&#45;&gt;slf4j_api -->
<g id="edge54" class="edge"><title>jcl_over_slf4j&#45;&gt;slf4j_api</title>
<path fill="none" stroke="#9ecae1" d="M1149.23,-592.966C1094.29,-566.048 987.558,-513.756 928.271,-484.71"/>
<polygon fill="#9ecae1" stroke="#9ecae1" points="929.699,-481.512 919.179,-480.255 926.619,-487.798 929.699,-481.512"/>
</g>
<!-- ch_qos_logback_classic&#45;&gt;org_apache_felix_http_jetty -->
<g id="edge62" class="edge"><title>ch_qos_logback_classic&#45;&gt;org_apache_felix_http_jetty</title>
<path fill="none" stroke="#bdbdbd" d="M1199.79,-370.671C1189.97,-318.42 1160.12,-164.961 1145,-148 1126.15,-126.849 1098.29,-113.97 1071.88,-106.133"/>
<polygon fill="#bdbdbd" stroke="#bdbdbd" points="1072.8,-102.758 1062.23,-103.468 1070.94,-109.505 1072.8,-102.758"/>
</g>
<!-- ch_qos_logback_classic&#45;&gt;slf4j_api -->
<g id="edge64" class="edge"><title>ch_qos_logback_classic&#45;&gt;slf4j_api</title>
<path fill="none" stroke="#bdbdbd" d="M1143.59,-404.76C1081.21,-419.347 984.785,-441.174 929.245,-453.223"/>
<polygon fill="#bdbdbd" stroke="#bdbdbd" points="928.404,-449.824 919.368,-455.355 929.881,-456.667 928.404,-449.824"/>
</g>
<!-- ch_qos_logback_core -->
<g id="node23" class="node"><title>ch_qos_logback_core</title>
<polygon fill="#bdbdbd" stroke="black" points="1658.86,-297 1658.86,-333 1769.14,-333 1769.14,-297 1658.86,-297"/>
<text text-anchor="middle" x="1714" y="-321" font-family="Arial" font-size="8.00">Logback Core Module</text>
<polyline fill="none" stroke="black" points="1658.86,-315.801 1769.14,-315.801 "/>
<text text-anchor="middle" x="1714" y="-303.301" font-family="Arial" font-size="8.00">ch.qos.logback.core(1.0.3)</text>
</g>
<!-- ch_qos_logback_classic&#45;&gt;ch_qos_logback_core -->
<g id="edge60" class="edge"><title>ch_qos_logback_classic&#45;&gt;ch_qos_logback_core</title>
<path fill="none" stroke="#bdbdbd" d="M1262.37,-379.635C1358.73,-366.057 1548.48,-339.322 1648.59,-325.216"/>
<polygon fill="#bdbdbd" stroke="#bdbdbd" points="1649.17,-328.669 1658.58,-323.808 1648.19,-321.738 1649.17,-328.669"/>
</g>
<!-- groovy_all -->
<g id="node24" class="node"><title>groovy_all</title>
<polygon fill="#bdbdbd" stroke="black" points="1220.1,-297 1220.1,-333 1293.9,-333 1293.9,-297 1220.1,-297"/>
<text text-anchor="middle" x="1257" y="-321" font-family="Arial" font-size="8.00">Groovy Runtime</text>
<polyline fill="none" stroke="black" points="1220.1,-315.801 1293.9,-315.801 "/>
<text text-anchor="middle" x="1257" y="-303.301" font-family="Arial" font-size="8.00">groovy&#45;all(1.8.2)</text>
</g>
<!-- ch_qos_logback_classic&#45;&gt;groovy_all -->
<g id="edge66" class="edge"><title>ch_qos_logback_classic&#45;&gt;groovy_all</title>
<path fill="none" stroke="#bdbdbd" d="M1215.8,-370.937C1222.36,-362.189 1230.48,-351.354 1237.78,-341.626"/>
<polygon fill="#bdbdbd" stroke="#bdbdbd" points="1240.72,-343.541 1243.92,-333.441 1235.12,-339.341 1240.72,-343.541"/>
</g>
<!-- ch_qos_logback_core&#45;&gt;org_apache_felix_http_jetty -->
<g id="edge70" class="edge"><title>ch_qos_logback_core&#45;&gt;org_apache_felix_http_jetty</title>
<path fill="none" stroke="#bdbdbd" d="M1758.16,-296.836C1773.97,-288.292 1790.08,-276.242 1799,-260 1807.13,-245.198 1808.48,-235.976 1799,-222 1749.05,-148.374 1699.56,-168.553 1613,-148 1421.93,-102.635 1189.34,-94.5451 1072.53,-93.612"/>
<polygon fill="#bdbdbd" stroke="#bdbdbd" points="1072.3,-90.1106 1062.27,-93.5463 1072.25,-97.1104 1072.3,-90.1106"/>
</g>
<!-- org_glassfish_javax_mail -->
<g id="node25" class="node"><title>org_glassfish_javax_mail</title>
<polygon fill="#bdbdbd" stroke="black" points="1637.75,-223 1637.75,-259 1790.25,-259 1790.25,-223 1637.75,-223"/>
<text text-anchor="middle" x="1714" y="-247" font-family="Arial" font-size="8.00">javax.mail API v.1.4</text>
<polyline fill="none" stroke="black" points="1637.75,-241.801 1790.25,-241.801 "/>
<text text-anchor="middle" x="1714" y="-229.301" font-family="Arial" font-size="8.00">org.glassfish.javax.mail(3.0.0.Preview)</text>
</g>
<!-- ch_qos_logback_core&#45;&gt;org_glassfish_javax_mail -->
<g id="edge68" class="edge"><title>ch_qos_logback_core&#45;&gt;org_glassfish_javax_mail</title>
<path fill="none" stroke="#bdbdbd" d="M1714,-296.937C1714,-288.807 1714,-278.876 1714,-269.705"/>
<polygon fill="#bdbdbd" stroke="#bdbdbd" points="1717.5,-269.441 1714,-259.441 1710.5,-269.441 1717.5,-269.441"/>
</g>
<!-- groovy_all&#45;&gt;org_apache_felix_http_jetty -->
<g id="edge74" class="edge"><title>groovy_all&#45;&gt;org_apache_felix_http_jetty</title>
<path fill="none" stroke="#bdbdbd" d="M1293.98,-309.623C1398.52,-295.904 1682.8,-248.538 1591,-148 1556.65,-110.383 1223.69,-98.6805 1072.28,-95.2865"/>
<polygon fill="#bdbdbd" stroke="#bdbdbd" points="1072.21,-91.7843 1062.14,-95.0655 1072.06,-98.7826 1072.21,-91.7843"/>
</g>
<!-- org_apache_servicemix_bundles_xstream -->
<g id="node26" class="node"><title>org_apache_servicemix_bundles_xstream</title>
<polygon fill="#bdbdbd" stroke="black" points="1191.63,-223 1191.63,-259 1378.37,-259 1378.37,-223 1191.63,-223"/>
<text text-anchor="middle" x="1285" y="-247" font-family="Arial" font-size="8.00">Apache ServiceMix :: Bundles :: xstream</text>
<polyline fill="none" stroke="black" points="1191.63,-241.801 1378.37,-241.801 "/>
<text text-anchor="middle" x="1285" y="-229.301" font-family="Arial" font-size="8.00">org.apache.servicemix.bundles.xstream(1.4.1.1)</text>
</g>
<!-- groovy_all&#45;&gt;org_apache_servicemix_bundles_xstream -->
<g id="edge72" class="edge"><title>groovy_all&#45;&gt;org_apache_servicemix_bundles_xstream</title>
<path fill="none" stroke="#bdbdbd" d="M1263.64,-296.937C1266.9,-288.542 1270.91,-278.227 1274.57,-268.81"/>
<polygon fill="#bdbdbd" stroke="#bdbdbd" points="1277.86,-270.029 1278.22,-259.441 1271.33,-267.492 1277.86,-270.029"/>
</g>
<!-- org_apache_sling_scripting_jsp -->
<g id="node27" class="node"><title>org_apache_sling_scripting_jsp</title>
<polygon fill="#bdbdbd" stroke="black" points="812.631,-223 812.631,-259 959.369,-259 959.369,-223 812.631,-223"/>
<text text-anchor="middle" x="886" y="-247" font-family="Arial" font-size="8.00">Apache Sling Scripting JSP Support</text>
<polyline fill="none" stroke="black" points="812.631,-241.801 959.369,-241.801 "/>
<text text-anchor="middle" x="886" y="-229.301" font-family="Arial" font-size="8.00">org.apache.sling.scripting.jsp(2.0.24)</text>
</g>
<!-- groovy_all&#45;&gt;org_apache_sling_scripting_jsp -->
<g id="edge76" class="edge"><title>groovy_all&#45;&gt;org_apache_sling_scripting_jsp</title>
<path fill="none" stroke="#bdbdbd" d="M1220.07,-306.833C1162.07,-295.577 1048.14,-273.466 969.578,-258.22"/>
<polygon fill="#bdbdbd" stroke="#bdbdbd" points="970.183,-254.772 959.7,-256.303 968.85,-261.644 970.183,-254.772"/>
</g>
<!-- org_apache_servicemix_bundles_xpp3 -->
<g id="node28" class="node"><title>org_apache_servicemix_bundles_xpp3</title>
<polygon fill="#bdbdbd" stroke="black" points="1393.73,-149 1393.73,-185 1582.27,-185 1582.27,-149 1393.73,-149"/>
<text text-anchor="middle" x="1488" y="-173" font-family="Arial" font-size="8.00">Apache ServiceMix :: Bundles :: xpp3</text>
<polyline fill="none" stroke="black" points="1393.73,-167.801 1582.27,-167.801 "/>
<text text-anchor="middle" x="1488" y="-155.301" font-family="Arial" font-size="8.00">org.apache.servicemix.bundles.xpp3(1.1.0.4c_5)</text>
</g>
<!-- org_apache_servicemix_bundles_xstream&#45;&gt;org_apache_servicemix_bundles_xpp3 -->
<g id="edge84" class="edge"><title>org_apache_servicemix_bundles_xstream&#45;&gt;org_apache_servicemix_bundles_xpp3</title>
<path fill="none" stroke="#bdbdbd" d="M1333.11,-222.937C1362.2,-212.618 1399.48,-199.397 1430.17,-188.511"/>
<polygon fill="#bdbdbd" stroke="#bdbdbd" points="1431.63,-191.707 1439.89,-185.065 1429.29,-185.109 1431.63,-191.707"/>
</g>
<!-- org_apache_servicemix_bundles_cglib -->
<g id="node29" class="node"><title>org_apache_servicemix_bundles_cglib</title>
<polygon fill="#bdbdbd" stroke="black" points="1192.18,-149 1192.18,-185 1375.82,-185 1375.82,-149 1192.18,-149"/>
<text text-anchor="middle" x="1284" y="-173" font-family="Arial" font-size="8.00">Apache ServiceMix Bundles: cglib&#45;2.1_3</text>
<polyline fill="none" stroke="black" points="1192.18,-167.801 1375.82,-167.801 "/>
<text text-anchor="middle" x="1284" y="-155.301" font-family="Arial" font-size="8.00">org.apache.servicemix.bundles.cglib(2.1.0.3_4)</text>
</g>
<!-- org_apache_servicemix_bundles_xstream&#45;&gt;org_apache_servicemix_bundles_cglib -->
<g id="edge86" class="edge"><title>org_apache_servicemix_bundles_xstream&#45;&gt;org_apache_servicemix_bundles_cglib</title>
<path fill="none" stroke="#bdbdbd" d="M1284.76,-222.937C1284.65,-214.807 1284.51,-204.876 1284.38,-195.705"/>
<polygon fill="#bdbdbd" stroke="#bdbdbd" points="1287.88,-195.391 1284.24,-185.441 1280.88,-195.488 1287.88,-195.391"/>
</g>
<!-- org_apache_sling_scripting_jsp&#45;&gt;org_apache_felix_scr -->
<g id="edge88" class="edge"><title>org_apache_sling_scripting_jsp&#45;&gt;org_apache_felix_scr</title>
<path fill="none" stroke="#bdbdbd" d="M812.618,-245.535C721.518,-254.328 578,-284.591 578,-388 578,-538 578,-538 578,-538 578,-707.954 386.833,-633.623 210.832,-665.985"/>
<polygon fill="#bdbdbd" stroke="#bdbdbd" points="210.008,-662.58 200.868,-667.937 211.354,-669.449 210.008,-662.58"/>
</g>
<!-- org_apache_sling_scripting_jsp&#45;&gt;org_apache_felix_http_jetty -->
<g id="edge94" class="edge"><title>org_apache_sling_scripting_jsp&#45;&gt;org_apache_felix_http_jetty</title>
<path fill="none" stroke="#bdbdbd" d="M931.975,-222.889C949.162,-214.303 967.324,-202.21 979,-186 992.511,-167.241 996.885,-141.049 998.098,-121.407"/>
<polygon fill="#bdbdbd" stroke="#bdbdbd" points="1001.6,-121.384 998.485,-111.258 994.607,-121.117 1001.6,-121.384"/>
</g>
<!-- org_apache_sling_scripting_jsp&#45;&gt;org_apache_sling_api -->
<g id="edge90" class="edge"><title>org_apache_sling_scripting_jsp&#45;&gt;org_apache_sling_api</title>
<path fill="none" stroke="#bdbdbd" d="M932.212,-222.937C960.039,-212.663 995.656,-199.511 1025.07,-188.652"/>
<polygon fill="#bdbdbd" stroke="#bdbdbd" points="1026.61,-191.812 1034.78,-185.065 1024.19,-185.246 1026.61,-191.812"/>
</g>
<!-- org_apache_sling_scripting_jsp&#45;&gt;slf4j_api -->
<g id="edge98" class="edge"><title>org_apache_sling_scripting_jsp&#45;&gt;slf4j_api</title>
<path fill="none" stroke="#bdbdbd" d="M886,-259.183C886,-297.181 886,-388.609 886,-434.602"/>
<polygon fill="#bdbdbd" stroke="#bdbdbd" points="882.5,-434.737 886,-444.737 889.5,-434.737 882.5,-434.737"/>
</g>
<!-- org_apache_sling_commons_classloader -->
<g id="node30" class="node"><title>org_apache_sling_commons_classloader</title>
<polygon fill="#bdbdbd" stroke="black" points="606.293,-149 606.293,-185 783.707,-185 783.707,-149 606.293,-149"/>
<text text-anchor="middle" x="695" y="-173" font-family="Arial" font-size="8.00">Apache Sling Dynamic Class Loader Support</text>
<polyline fill="none" stroke="black" points="606.293,-167.801 783.707,-167.801 "/>
<text text-anchor="middle" x="695" y="-155.301" font-family="Arial" font-size="8.00">org.apache.sling.commons.classloader(1.3.0)</text>
</g>
<!-- org_apache_sling_scripting_jsp&#45;&gt;org_apache_sling_commons_classloader -->
<g id="edge92" class="edge"><title>org_apache_sling_scripting_jsp&#45;&gt;org_apache_sling_commons_classloader</title>
<path fill="none" stroke="#bdbdbd" d="M840.736,-222.937C813.48,-212.663 778.593,-199.511 749.786,-188.652"/>
<polygon fill="#bdbdbd" stroke="#bdbdbd" points="750.862,-185.317 740.27,-185.065 748.393,-191.868 750.862,-185.317"/>
</g>
<!-- org_apache_sling_scripting_api -->
<g id="node31" class="node"><title>org_apache_sling_scripting_api</title>
<polygon fill="#bdbdbd" stroke="black" points="801.957,-149 801.957,-185 970.043,-185 970.043,-149 801.957,-149"/>
<text text-anchor="middle" x="886" y="-173" font-family="Arial" font-size="8.00">Apache Sling Scripting Implementation API</text>
<polyline fill="none" stroke="black" points="801.957,-167.801 970.043,-167.801 "/>
<text text-anchor="middle" x="886" y="-155.301" font-family="Arial" font-size="8.00">org.apache.sling.scripting.api(2.1.4)</text>
</g>
<!-- org_apache_sling_scripting_jsp&#45;&gt;org_apache_sling_scripting_api -->
<g id="edge96" class="edge"><title>org_apache_sling_scripting_jsp&#45;&gt;org_apache_sling_scripting_api</title>
<path fill="none" stroke="#bdbdbd" d="M886,-222.937C886,-214.807 886,-204.876 886,-195.705"/>
<polygon fill="#bdbdbd" stroke="#bdbdbd" points="889.5,-195.441 886,-185.441 882.5,-195.441 889.5,-195.441"/>
</g>
<!-- org_apache_sling_scripting_jsp&#45;&gt;org_apache_felix_eventadmin -->
<g id="edge100" class="edge"><title>org_apache_sling_scripting_jsp&#45;&gt;org_apache_felix_eventadmin</title>
<path fill="none" stroke="#bdbdbd" d="M812.426,-230.624C706.937,-217.181 513.328,-192.509 403.24,-178.48"/>
<polygon fill="#bdbdbd" stroke="#bdbdbd" points="403.541,-174.99 393.179,-177.198 402.656,-181.934 403.541,-174.99"/>
</g>
<!-- org_apache_sling_commons_classloader&#45;&gt;slf4j_api -->
<g id="edge108" class="edge"><title>org_apache_sling_commons_classloader&#45;&gt;slf4j_api</title>
<path fill="none" stroke="#bdbdbd" d="M706.125,-185.125C738.207,-234.508 831.041,-377.403 869.258,-436.23"/>
<polygon fill="#bdbdbd" stroke="#bdbdbd" points="866.523,-438.444 874.905,-444.923 872.393,-434.63 866.523,-438.444"/>
</g>
<!-- org_apache_felix_eventadmin&#45;&gt;org_apache_felix_metatype -->
<g id="edge110" class="edge"><title>org_apache_felix_eventadmin&#45;&gt;org_apache_felix_metatype</title>
<path fill="none" stroke="#bdbdbd" d="M317.049,-185.424C311.22,-212.693 301,-267.181 301,-314 301,-464 301,-464 301,-464 301,-505.356 301,-553.3 301,-582.637"/>
<polygon fill="#bdbdbd" stroke="#bdbdbd" points="297.5,-582.917 301,-592.917 304.5,-582.917 297.5,-582.917"/>
</g>
<!-- org_apache_felix_eventadmin&#45;&gt;org_apache_sling_commons_logservice -->
<g id="edge112" class="edge"><title>org_apache_felix_eventadmin&#45;&gt;org_apache_sling_commons_logservice</title>
<path fill="none" stroke="#bdbdbd" d="M328.903,-185.113C340.56,-211.965 361,-265.905 361,-314 361,-390 361,-390 361,-390 361,-435.005 385.692,-482.352 403.396,-510.515"/>
<polygon fill="#bdbdbd" stroke="#bdbdbd" points="400.487,-512.462 408.858,-518.957 406.364,-508.66 400.487,-512.462"/>
</g>
<!-- org_apache_felix_eventadmin&#45;&gt;org_apache_felix_configadmin -->
<g id="edge114" class="edge"><title>org_apache_felix_eventadmin&#45;&gt;org_apache_felix_configadmin</title>
<path fill="none" stroke="#bdbdbd" d="M328.584,-148.966C339.776,-123.826 360.822,-76.5535 374.088,-46.756"/>
<polygon fill="#bdbdbd" stroke="#bdbdbd" points="377.393,-47.9369 378.263,-37.3779 370.999,-45.0899 377.393,-47.9369"/>
</g>
</g>
</svg>
